<svg width="32" height="32" viewBox="0 0 32 32" fill="none" xmlns="http://www.w3.org/2000/svg">
<g clip-path="url(#clip0_4710_25897)">
<path opacity="0.2" d="M11 27C11.5792 27.0003 12.1462 26.8329 12.6324 26.5179C13.1185 26.203 13.5031 25.7541 13.7398 25.2254C13.9764 24.6967 14.0548 24.1108 13.9657 23.5384C13.8766 22.9661 13.6237 22.4317 13.2375 22H27.2375C27.6237 22.4317 27.8766 22.9661 27.9657 23.5384C28.0548 24.1108 27.9764 24.6967 27.7397 25.2254C27.5031 25.7541 27.1185 26.203 26.6324 26.5179C26.1462 26.8329 25.5792 27.0003 25 27H11Z" fill="#0070D4"/>
<path fill-rule="evenodd" clip-rule="evenodd" d="M21.9981 4.00003C22.5238 3.99812 23.0446 4.10018 23.5307 4.30034C24.0176 4.50079 24.4599 4.79565 24.8321 5.16791C25.2044 5.54017 25.4992 5.98247 25.6997 6.46928C25.8998 6.95538 26.0019 7.47626 26 8.00194V22C26 22.5523 25.5523 23 25 23C24.4477 23 24 22.5523 24 22V8.00003L24 7.99583C24.0011 7.73343 23.9502 7.47341 23.8503 7.23077C23.7504 6.98813 23.6034 6.76767 23.4179 6.58213C23.2324 6.39658 23.0119 6.24961 22.7693 6.1497C22.5266 6.04979 22.2666 5.99892 22.0042 6.00002L22 6.00003H5C4.44771 6.00003 4 5.55231 4 5.00003C4 4.44774 4.44771 4.00003 5 4.00003H21.9981Z" fill="#0070D4"/>
<path fill-rule="evenodd" clip-rule="evenodd" d="M12 13C12 12.4477 12.4477 12 13 12H21C21.5523 12 22 12.4477 22 13C22 13.5523 21.5523 14 21 14H13C12.4477 14 12 13.5523 12 13Z" fill="#0070D4"/>
<path fill-rule="evenodd" clip-rule="evenodd" d="M12 17C12 16.4477 12.4477 16 13 16H21C21.5523 16 22 16.4477 22 17C22 17.5523 21.5523 18 21 18H13C12.4477 18 12 17.5523 12 17Z" fill="#0070D4"/>
<path fill-rule="evenodd" clip-rule="evenodd" d="M5.23741 6.01577C4.91561 5.9773 4.58929 6.0176 4.28653 6.13322C3.98376 6.24883 3.71363 6.43629 3.49938 6.67946C3.28513 6.92262 3.13318 7.21421 3.05662 7.52913C2.98005 7.84404 2.98116 8.17284 3.05985 8.48723C3.13854 8.80162 3.29245 9.09218 3.50833 9.33389C3.87623 9.74581 3.84054 10.378 3.42863 10.7459C3.01672 11.1138 2.38456 11.0781 2.01667 10.6662C1.5849 10.1827 1.27707 9.60161 1.1197 8.97283C0.962318 8.34405 0.9601 7.68645 1.11323 7.05662C1.26636 6.4268 1.57026 5.84362 1.99876 5.35729C2.42726 4.87095 2.96752 4.49604 3.57305 4.26481C4.17858 4.03358 4.83123 3.95297 5.47482 4.02991C6.11841 4.10685 6.73367 4.33904 7.26762 4.7065C7.80158 5.07395 8.23824 5.56566 8.54002 6.1393C8.8418 6.71294 8.99965 7.35132 9 7.99949V23.9995C9.00017 24.3236 9.0791 24.6428 9.22999 24.9296C9.38088 25.2164 9.59921 25.4623 9.86619 25.646C10.1332 25.8297 10.4408 25.9458 10.7626 25.9843C11.0844 26.0228 11.4107 25.9824 11.7135 25.8668C12.0162 25.7512 12.2864 25.5638 12.5006 25.3206C12.7149 25.0774 12.8668 24.7858 12.9434 24.4709C13.0199 24.156 13.0188 23.8272 12.9402 23.5128C12.8615 23.1984 12.7076 22.9079 12.4917 22.6662C12.2291 22.3721 12.1637 21.9513 12.3248 21.5914C12.4858 21.2316 12.8433 21 13.2375 21H27.2375C27.5221 21 27.7931 21.1213 27.9829 21.3334C28.4977 21.909 28.835 22.6214 28.9538 23.3846C29.0726 24.1477 28.968 24.9289 28.6525 25.6339C28.3371 26.3389 27.8242 26.9374 27.176 27.3573C26.5279 27.7771 25.7722 28.0003 25 28C24.9998 28 25.0002 28 25 28H11C10.9778 28 10.9558 27.9993 10.934 27.9979C10.7976 27.9956 10.6612 27.9864 10.5252 27.9701C9.88159 27.8932 9.26633 27.661 8.73238 27.2936C8.19842 26.9261 7.76176 26.4344 7.45998 25.8608C7.1582 25.2871 7.00035 24.6487 7 24.0006V8.00056C7 8.00038 7 8.00074 7 8.00056C6.99974 7.67666 6.92082 7.35712 6.77001 7.07046C6.61912 6.78364 6.40079 6.53779 6.13381 6.35406C5.86683 6.17034 5.55921 6.05424 5.23741 6.01577ZM14.4632 26H25.0005C25.3866 26.0002 25.7646 25.8886 26.0887 25.6787C26.4128 25.4687 26.6692 25.1694 26.827 24.817C26.9847 24.4645 27.037 24.0739 26.9776 23.6923C26.9395 23.4473 26.8563 23.2127 26.7335 23H14.8734C14.8757 23.0091 14.878 23.0181 14.8803 23.0272C15.0377 23.656 15.0399 24.3136 14.8868 24.9434C14.7963 25.3153 14.6534 25.671 14.4632 26Z" fill="#0070D4"/>
</g>
<defs>
<clipPath id="clip0_4710_25897">
<rect width="32" height="32" fill="white"/>
</clipPath>
</defs>
</svg>
