<svg width="256" height="1158" viewBox="0 0 256 1158" fill="none" xmlns="http://www.w3.org/2000/svg">
<mask id="path-1-inside-1_4707_25647" fill="white">
<path d="M0 0H256V1158H0V0Z"/>
</mask>
<path d="M0 0H256V1158H0V0Z" fill="#F7F8FB"/>
<path d="M256 0H255V1158H256H257V0H256Z" fill="#D9DCE1" mask="url(#path-1-inside-1_4707_25647)"/>
<g clip-path="url(#clip0_4707_25647)">
<g clip-path="url(#clip1_4707_25647)">
<path d="M45.0992 101.109C45.3508 101.338 45.5 101.676 45.5 102.027V109.25H46.75C46.9158 109.25 47.0747 109.316 47.1919 109.433C47.3092 109.55 47.375 109.709 47.375 109.875C47.375 110.041 47.3092 110.2 47.1919 110.317C47.0747 110.434 46.9158 110.5 46.75 110.5H29.25C29.0842 110.5 28.9253 110.434 28.8081 110.317C28.6908 110.2 28.625 110.041 28.625 109.875C28.625 109.709 28.6908 109.55 28.8081 109.433C28.9253 109.316 29.0842 109.25 29.25 109.25H30.5V102.027C30.5001 101.853 30.5362 101.681 30.6063 101.522C30.6763 101.363 30.7786 101.221 30.9067 101.103L37.1492 95.2075C37.3787 94.9942 37.6801 94.8749 37.9935 94.8735C38.3069 94.8722 38.6094 94.9887 38.8408 95.2L45.0992 101.109ZM37.9908 96.1175L31.7575 102.018L31.7508 109.25H35.5V105.5C35.5 104.811 36.0608 104.25 36.75 104.25H39.25C39.9392 104.25 40.5 104.811 40.5 105.5V109.25H44.25V102.027L37.9908 96.1175ZM36.75 109.25H39.25V105.5H36.75V109.25Z" fill="#848890"/>
</g>
<path d="M61.472 109V97.96H62.816V102.76H68.736V97.96H70.08V109H68.736V103.752H62.816V109H61.472ZM76.3309 109.192C74.0269 109.192 72.4749 107.56 72.4749 105C72.4749 102.44 74.0269 100.808 76.3309 100.808C78.6349 100.808 80.1869 102.44 80.1869 105C80.1869 107.56 78.6349 109.192 76.3309 109.192ZM76.3309 108.36C77.7389 108.36 78.8109 107.288 78.8109 105C78.8109 102.712 77.7389 101.64 76.3309 101.64C74.9229 101.64 73.8509 102.712 73.8509 105C73.8509 107.288 74.9229 108.36 76.3309 108.36ZM82.5174 109V101H83.7974V102.12C84.3894 101.304 85.2214 100.808 86.3734 100.808C87.4934 100.808 88.3094 101.288 88.6774 102.232C89.3334 101.16 90.3734 100.808 91.4454 100.808C92.9814 100.808 93.9414 101.688 93.9414 103.448V109H92.6614V103.608C92.6614 102.296 92.1174 101.72 91.0454 101.72C89.7494 101.72 88.8694 102.6 88.8694 104.088V109H87.5894V103.608C87.5894 102.296 87.0454 101.72 85.9734 101.72C84.6774 101.72 83.7974 102.6 83.7974 104.088V109H82.5174ZM103.586 104.84C103.586 104.984 103.586 105.016 103.57 105.192H97.554C97.618 107.352 98.658 108.36 100.002 108.36C101.074 108.36 101.858 107.832 102.29 106.44L103.49 106.808C102.93 108.344 101.65 109.192 100.002 109.192C97.73 109.192 96.178 107.56 96.178 105C96.178 102.44 97.73 100.808 100.002 100.808C102.258 100.808 103.586 102.312 103.586 104.84ZM100.002 101.64C98.738 101.64 97.746 102.536 97.57 104.44H102.21C102.082 102.504 101.25 101.64 100.002 101.64Z" fill="#1C1D1F"/>
<path d="M208 97C208 94.7909 209.791 93 212 93H224C226.209 93 228 94.7909 228 97V109C228 111.209 226.209 113 224 113H212C209.791 113 208 111.209 208 109V97Z" fill="#0075DE"/>
<path d="M217.504 107.5V101.188C217.096 101.608 216.532 101.8 215.8 101.8V100.48C216.856 100.48 217.552 100.12 217.888 99.22H219.316V107.5H217.504Z" fill="white"/>
<path d="M37.1603 155.337C37.9979 154.78 38.6339 153.967 38.9741 153.02C39.3143 152.073 39.3407 151.042 39.0494 150.079C38.7581 149.115 38.1646 148.271 37.3565 147.672C36.5485 147.072 35.5689 146.748 34.5626 146.748C33.5563 146.748 32.5767 147.072 31.7687 147.672C30.9606 148.271 30.3671 149.115 30.0758 150.079C29.7845 151.042 29.8109 152.073 30.1511 153.02C30.4913 153.967 31.1273 154.78 31.9649 155.337C30.4497 155.896 29.1557 156.929 28.2759 158.284C28.2296 158.352 28.1975 158.429 28.1814 158.511C28.1653 158.592 28.1654 158.676 28.1819 158.757C28.1984 158.838 28.2309 158.915 28.2774 158.984C28.3239 159.052 28.3836 159.111 28.453 159.156C28.5224 159.201 28.6 159.232 28.6815 159.247C28.763 159.262 28.8466 159.261 28.9275 159.243C29.0085 159.225 29.0851 159.192 29.1529 159.144C29.2208 159.097 29.2785 159.036 29.3228 158.966C29.8902 158.094 30.6668 157.376 31.5818 156.88C32.4969 156.383 33.5215 156.123 34.5626 156.123C35.6037 156.123 36.6283 156.383 37.5434 156.88C38.4584 157.376 39.235 158.094 39.8024 158.966C39.8941 159.103 40.0357 159.197 40.1966 159.23C40.3576 159.263 40.5249 159.231 40.6624 159.141C40.8 159.051 40.8967 158.911 40.9317 158.751C40.9666 158.59 40.9371 158.422 40.8493 158.284C39.9695 156.929 38.6755 155.896 37.1603 155.337ZM31.1251 151.437C31.1251 150.758 31.3267 150.093 31.7044 149.528C32.0821 148.962 32.619 148.522 33.2471 148.262C33.8752 148.001 34.5664 147.933 35.2332 148.066C35.9 148.199 36.5125 148.526 36.9933 149.007C37.474 149.488 37.8014 150.1 37.934 150.767C38.0667 151.434 37.9986 152.125 37.7384 152.753C37.4783 153.381 37.0377 153.918 36.4724 154.296C35.9071 154.673 35.2425 154.875 34.5626 154.875C33.6512 154.874 32.7775 154.511 32.1331 153.867C31.4886 153.223 31.1261 152.349 31.1251 151.437ZM47.5423 159.148C47.4035 159.239 47.2344 159.271 47.0722 159.236C46.91 159.202 46.768 159.105 46.6774 158.966C46.1106 158.093 45.3342 157.375 44.4189 156.879C43.5037 156.383 42.4788 156.124 41.4376 156.125C41.2718 156.125 41.1129 156.059 40.9957 155.942C40.8784 155.825 40.8126 155.666 40.8126 155.5C40.8126 155.334 40.8784 155.175 40.9957 155.058C41.1129 154.941 41.2718 154.875 41.4376 154.875C41.9438 154.874 42.4437 154.762 42.9015 154.546C43.3593 154.33 43.7637 154.016 44.0859 153.625C44.4081 153.235 44.64 152.778 44.7652 152.287C44.8903 151.797 44.9056 151.285 44.8099 150.788C44.7142 150.29 44.5098 149.821 44.2115 149.412C43.9132 149.003 43.5282 148.665 43.0841 148.422C42.64 148.179 42.1477 148.037 41.6424 148.006C41.1371 147.976 40.6313 148.057 40.161 148.244C40.0844 148.278 40.0018 148.295 39.9183 148.296C39.8348 148.296 39.752 148.28 39.6748 148.249C39.5975 148.217 39.5275 148.17 39.4688 148.11C39.41 148.051 39.3638 147.98 39.3327 147.903C39.3017 147.825 39.2866 147.742 39.2881 147.659C39.2897 147.575 39.3081 147.493 39.342 147.417C39.376 147.34 39.4249 147.272 39.4858 147.215C39.5468 147.157 39.6186 147.113 39.697 147.084C40.7731 146.655 41.9701 146.64 43.0569 147.041C44.1438 147.442 45.0435 148.232 45.5826 149.257C46.1217 150.283 46.2619 151.472 45.9761 152.594C45.6904 153.717 44.999 154.694 44.0353 155.337C45.5505 155.896 46.8445 156.929 47.7243 158.284C47.8148 158.422 47.8465 158.591 47.8124 158.754C47.7783 158.916 47.6811 159.058 47.5423 159.148Z" fill="#848890"/>
<path d="M61.472 159V147.96H65.952C68.176 147.96 69.408 149.112 69.408 151.096C69.408 153.016 68.176 154.232 65.952 154.232H62.816V159H61.472ZM62.816 153.272H65.536C67.232 153.272 68.032 152.552 68.032 151.096C68.032 149.64 67.232 148.92 65.536 148.92H62.816V153.272ZM77.8673 154.84C77.8673 154.984 77.8673 155.016 77.8513 155.192H71.8353C71.8993 157.352 72.9393 158.36 74.2833 158.36C75.3553 158.36 76.1393 157.832 76.5713 156.44L77.7713 156.808C77.2113 158.344 75.9313 159.192 74.2833 159.192C72.0113 159.192 70.4593 157.56 70.4593 155C70.4593 152.44 72.0113 150.808 74.2833 150.808C76.5393 150.808 77.8673 152.312 77.8673 154.84ZM74.2833 151.64C73.0193 151.64 72.0273 152.536 71.8513 154.44H76.4913C76.3633 152.504 75.5313 151.64 74.2833 151.64ZM83.4871 159.192C81.1831 159.192 79.6311 157.56 79.6311 155C79.6311 152.44 81.1831 150.808 83.4871 150.808C85.7911 150.808 87.3431 152.44 87.3431 155C87.3431 157.56 85.7911 159.192 83.4871 159.192ZM83.4871 158.36C84.8951 158.36 85.9671 157.288 85.9671 155C85.9671 152.712 84.8951 151.64 83.4871 151.64C82.0791 151.64 81.0071 152.712 81.0071 155C81.0071 157.288 82.0791 158.36 83.4871 158.36ZM89.6736 162.52V151H90.9536V152.2C91.5136 151.384 92.4256 150.808 93.6096 150.808C95.7696 150.808 97.1936 152.44 97.1936 155C97.1936 157.56 95.7696 159.192 93.6096 159.192C92.5696 159.192 91.5936 158.808 90.9536 157.944V162.52H89.6736ZM93.4496 158.36C94.7616 158.36 95.8176 157.288 95.8176 155C95.8176 152.712 94.7616 151.64 93.4496 151.64C92.0416 151.64 90.8896 152.792 90.8896 155C90.8896 157.208 92.0416 158.36 93.4496 158.36ZM99.533 159V147.48H100.813V159H99.533ZM110.555 154.84C110.555 154.984 110.555 155.016 110.539 155.192H104.523C104.587 157.352 105.627 158.36 106.971 158.36C108.043 158.36 108.827 157.832 109.259 156.44L110.459 156.808C109.899 158.344 108.619 159.192 106.971 159.192C104.699 159.192 103.147 157.56 103.147 155C103.147 152.44 104.699 150.808 106.971 150.808C109.227 150.808 110.555 152.312 110.555 154.84ZM106.971 151.64C105.707 151.64 104.715 152.536 104.539 154.44H109.179C109.051 152.504 108.219 151.64 106.971 151.64Z" fill="#1C1D1F"/>
<path d="M42.375 194.875C42.375 194.709 42.3092 194.55 42.1919 194.433C42.0747 194.316 41.9158 194.25 41.75 194.25C41.5842 194.25 41.4253 194.316 41.3081 194.433C41.1908 194.55 41.125 194.709 41.125 194.875V195.5H34.875V194.875C34.875 194.709 34.8092 194.55 34.6919 194.433C34.5747 194.316 34.4158 194.25 34.25 194.25C34.0842 194.25 33.9253 194.316 33.8081 194.433C33.6908 194.55 33.625 194.709 33.625 194.875V195.5H31.75C31.4185 195.5 31.1005 195.632 30.8661 195.866C30.6317 196.101 30.5 196.418 30.5 196.75V209.25C30.5 209.582 30.6317 209.899 30.8661 210.134C31.1005 210.368 31.4185 210.5 31.75 210.5H44.25C44.5815 210.5 44.8995 210.368 45.1339 210.134C45.3683 209.899 45.5 209.582 45.5 209.25V196.75C45.5 196.418 45.3683 196.101 45.1339 195.866C44.8995 195.632 44.5815 195.5 44.25 195.5H42.375V194.875ZM34.25 198C34.4158 198 34.5747 197.934 34.6919 197.817C34.8092 197.7 34.875 197.541 34.875 197.375V196.75H41.125V197.375C41.125 197.541 41.1908 197.7 41.3081 197.817C41.4253 197.934 41.5842 198 41.75 198C41.9158 198 42.0747 197.934 42.1919 197.817C42.3092 197.7 42.375 197.541 42.375 197.375V196.75H44.25V199.25H31.75V196.75H33.625V197.375C33.625 197.72 33.905 198 34.25 198ZM31.75 200.5H44.25V209.25H31.75V200.5Z" fill="#848890"/>
<path d="M66.384 209.192C63.248 209.192 60.864 207.064 60.864 203.48C60.864 199.896 63.248 197.768 66.384 197.768C68.784 197.768 70.72 199.128 71.392 201.496L70.016 201.912C69.568 199.816 68.224 198.728 66.384 198.728C64.016 198.728 62.304 200.392 62.304 203.48C62.304 206.568 64.016 208.232 66.384 208.232C68.224 208.232 69.568 207.144 70.016 205.048L71.392 205.464C70.72 207.832 68.784 209.192 66.384 209.192ZM75.3745 209.192C73.7905 209.192 72.8625 208.344 72.8625 207.064C72.8625 205.72 73.7905 205.24 75.5665 204.68L76.6385 204.344C77.7905 203.976 78.1265 203.768 78.1265 203.064C78.1265 202.168 77.6785 201.64 76.4785 201.64C75.1345 201.64 74.4785 202.248 74.4305 203.672L73.1505 203.48C73.3265 201.672 74.5585 200.808 76.4785 200.808C78.5745 200.808 79.3905 201.672 79.3905 203.448V207.688C79.3905 208.104 79.5185 208.2 79.8065 208.2H80.2385V209.08H79.5345C78.6385 209.08 78.1905 208.632 78.1905 207.736V207.304C77.6785 208.584 76.5745 209.192 75.3745 209.192ZM75.6625 208.36C77.1985 208.36 78.1265 207.032 78.1265 205.464V204.472C77.9185 204.664 77.5025 204.808 76.8145 205.032L75.9185 205.32C74.7185 205.704 74.1585 206.088 74.1585 206.984C74.1585 207.784 74.6225 208.36 75.6625 208.36ZM82.2518 209V197.48H83.5318V209H82.2518ZM93.2735 204.84C93.2735 204.984 93.2735 205.016 93.2575 205.192H87.2415C87.3055 207.352 88.3455 208.36 89.6895 208.36C90.7615 208.36 91.5455 207.832 91.9775 206.44L93.1775 206.808C92.6175 208.344 91.3375 209.192 89.6895 209.192C87.4175 209.192 85.8655 207.56 85.8655 205C85.8655 202.44 87.4175 200.808 89.6895 200.808C91.9455 200.808 93.2735 202.312 93.2735 204.84ZM89.6895 201.64C88.4255 201.64 87.4335 202.536 87.2575 204.44H91.8975C91.7695 202.504 90.9375 201.64 89.6895 201.64ZM95.5174 209V201H96.7974V202.12C97.3894 201.304 98.2854 200.808 99.4374 200.808C101.133 200.808 102.093 201.768 102.093 203.528V209H100.813V203.688C100.813 202.456 100.349 201.72 99.0374 201.72C97.7574 201.72 96.7974 202.6 96.7974 204.168V209H95.5174ZM107.918 209.192C105.758 209.192 104.334 207.56 104.334 205C104.334 202.44 105.758 200.808 107.918 200.808C109.054 200.808 109.966 201.256 110.574 202.104V197.48H111.854V209H110.606V207.8C110.078 208.648 109.102 209.192 107.918 209.192ZM108.078 208.36C109.486 208.36 110.638 207.208 110.638 205C110.638 202.792 109.486 201.64 108.078 201.64C106.766 201.64 105.71 202.712 105.71 205C105.71 207.288 106.766 208.36 108.078 208.36ZM116.578 209.192C114.994 209.192 114.066 208.344 114.066 207.064C114.066 205.72 114.994 205.24 116.77 204.68L117.842 204.344C118.994 203.976 119.33 203.768 119.33 203.064C119.33 202.168 118.882 201.64 117.682 201.64C116.338 201.64 115.682 202.248 115.634 203.672L114.354 203.48C114.53 201.672 115.762 200.808 117.682 200.808C119.778 200.808 120.594 201.672 120.594 203.448V207.688C120.594 208.104 120.722 208.2 121.01 208.2H121.442V209.08H120.738C119.842 209.08 119.394 208.632 119.394 207.736V207.304C118.882 208.584 117.778 209.192 116.578 209.192ZM116.866 208.36C118.402 208.36 119.33 207.032 119.33 205.464V204.472C119.122 204.664 118.706 204.808 118.018 205.032L117.122 205.32C115.922 205.704 115.362 206.088 115.362 206.984C115.362 207.784 115.826 208.36 116.866 208.36ZM123.455 209V201H124.735V202.312C125.183 201.224 125.919 200.904 127.039 200.904H127.375V202.024H126.639C125.407 202.024 124.735 202.616 124.735 203.992V209H123.455Z" fill="#1C1D1F"/>
<path d="M12 234C12 231.791 13.7909 230 16 230H240C242.209 230 244 231.791 244 234V272C244 274.209 242.209 276 240 276H16C13.7909 276 12 274.209 12 272V234Z" fill="#EEF0F4"/>
<path opacity="0.2" d="M45.5 251.125V258C45.5 258.166 45.4342 258.325 45.3169 258.442C45.1997 258.559 45.0408 258.625 44.875 258.625H41.125V251.125H45.5Z" fill="#1C1D1F"/>
<path d="M30.1875 253C30.0217 253 29.8628 252.934 29.7456 252.817C29.6283 252.7 29.5625 252.541 29.5625 252.375C29.5625 252.209 29.6283 252.05 29.7456 251.933C29.8628 251.816 30.0217 251.75 30.1875 251.75H32.375C32.5408 251.75 32.6997 251.684 32.8169 251.567C32.9342 251.45 33 251.291 33 251.125C33 250.959 32.9342 250.8 32.8169 250.683C32.6997 250.566 32.5408 250.5 32.375 250.5H31.125C30.6277 250.5 30.1508 250.302 29.7992 249.951C29.4475 249.599 29.25 249.122 29.25 248.625C29.25 248.128 29.4475 247.651 29.7992 247.299C30.1508 246.948 30.6277 246.75 31.125 246.75C31.125 246.584 31.1908 246.425 31.3081 246.308C31.4253 246.191 31.5842 246.125 31.75 246.125C31.9158 246.125 32.0747 246.191 32.1919 246.308C32.3092 246.425 32.375 246.584 32.375 246.75H33C33.1658 246.75 33.3247 246.816 33.4419 246.933C33.5592 247.05 33.625 247.209 33.625 247.375C33.625 247.541 33.5592 247.7 33.4419 247.817C33.3247 247.934 33.1658 248 33 248H31.125C30.9592 248 30.8003 248.066 30.6831 248.183C30.5658 248.3 30.5 248.459 30.5 248.625C30.5 248.791 30.5658 248.95 30.6831 249.067C30.8003 249.184 30.9592 249.25 31.125 249.25H32.375C32.8723 249.25 33.3492 249.448 33.7008 249.799C34.0525 250.151 34.25 250.628 34.25 251.125C34.25 251.622 34.0525 252.099 33.7008 252.451C33.3492 252.802 32.8723 253 32.375 253C32.375 253.166 32.3092 253.325 32.1919 253.442C32.0747 253.559 31.9158 253.625 31.75 253.625C31.5842 253.625 31.4253 253.559 31.3081 253.442C31.1908 253.325 31.125 253.166 31.125 253H30.1875ZM46.125 247.375V258C46.125 258.332 45.9933 258.649 45.7589 258.884C45.5245 259.118 45.2065 259.25 44.875 259.25H31.125C30.7935 259.25 30.4755 259.118 30.2411 258.884C30.0067 258.649 29.875 258.332 29.875 258V254.875C29.875 254.709 29.9408 254.55 30.0581 254.433C30.1753 254.316 30.3342 254.25 30.5 254.25C30.6658 254.25 30.8247 254.316 30.9419 254.433C31.0592 254.55 31.125 254.709 31.125 254.875V258H40.5V255.5H34.25C34.0842 255.5 33.9253 255.434 33.8081 255.317C33.6908 255.2 33.625 255.041 33.625 254.875C33.625 254.709 33.6908 254.55 33.8081 254.433C33.9253 254.316 34.0842 254.25 34.25 254.25H40.5V251.75H36.125C35.9592 251.75 35.8003 251.684 35.6831 251.567C35.5658 251.45 35.5 251.291 35.5 251.125C35.5 250.959 35.5658 250.8 35.6831 250.683C35.8003 250.566 35.9592 250.5 36.125 250.5H44.875V248H35.5C35.3342 248 35.1753 247.934 35.0581 247.817C34.9408 247.7 34.875 247.541 34.875 247.375C34.875 247.209 34.9408 247.05 35.0581 246.933C35.1753 246.816 35.3342 246.75 35.5 246.75H45.5C45.6658 246.75 45.8247 246.816 45.9419 246.933C46.0592 247.05 46.125 247.209 46.125 247.375ZM41.75 254.25H44.875V251.75H41.75V254.25ZM44.875 258V255.5H41.75V258H44.875Z" fill="#0075DE"/>
<path d="M61.312 259V247.96H66.24C68.672 247.96 70.096 249.16 70.096 251.336C70.096 253.496 68.672 254.712 66.24 254.712H63.728V259H61.312ZM63.728 253.128H65.648C66.944 253.128 67.68 252.536 67.68 251.336C67.68 250.136 66.944 249.544 65.648 249.544H63.728V253.128ZM73.1821 259.192C71.6461 259.192 70.7181 258.344 70.7181 256.984C70.7181 255.56 71.5181 255.096 73.3261 254.568L74.6061 254.216C75.3581 253.992 75.6301 253.736 75.6301 253.144C75.6301 252.52 75.3261 252.152 74.6061 252.152C73.6781 252.152 73.2461 252.664 73.2141 253.8L70.9421 253.592C71.1341 251.736 72.3661 250.808 74.6061 250.808C77.0061 250.808 77.9821 251.752 77.9821 253.848V257.192C77.9821 257.496 78.0941 257.624 78.3501 257.624H78.6861V259.08H77.5501C76.4301 259.08 75.8381 258.776 75.7741 257.672L75.7581 257.4C75.3101 258.648 74.4781 259.192 73.1821 259.192ZM74.0941 257.72C74.9261 257.72 75.6301 256.984 75.6301 255.784V254.84C75.4381 254.968 75.1661 255.064 74.8461 255.176L74.4301 255.304C73.4541 255.608 73.0861 256.024 73.0861 256.68C73.0861 257.336 73.4701 257.72 74.0941 257.72ZM79.7714 262.52V260.84H80.6514C81.4034 260.84 81.7234 260.6 81.9634 259.912L82.1874 259.256L78.9554 251H81.4354L83.0834 256.136L83.2114 256.888H83.2754L85.0034 251H87.1154L83.7714 260.456C83.1954 262.088 82.4914 262.52 80.8594 262.52H79.7714Z" fill="#0075DE"/>
<path d="M38.4419 298.183C38.5592 298.3 38.625 298.459 38.625 298.625V302.375H42.375C42.5408 302.375 42.6997 302.441 42.8169 302.558C42.9342 302.675 43 302.834 43 303C43 303.166 42.9342 303.325 42.8169 303.442C42.6997 303.559 42.5408 303.625 42.375 303.625H38C37.655 303.625 37.375 303.345 37.375 303V298.625C37.375 298.459 37.4408 298.3 37.5581 298.183C37.6753 298.066 37.8342 298 38 298C38.1658 298 38.3247 298.066 38.4419 298.183Z" fill="#848890"/>
<path fill-rule="evenodd" clip-rule="evenodd" d="M29.875 303C29.875 298.512 33.5125 294.875 38 294.875C42.4875 294.875 46.125 298.512 46.125 303C46.125 307.488 42.4875 311.125 38 311.125C33.5125 311.125 29.875 307.488 29.875 303ZM33.1386 298.139C31.8493 299.428 31.125 301.177 31.125 303C31.125 304.823 31.8493 306.572 33.1386 307.861C34.428 309.151 36.1766 309.875 38 309.875C39.8234 309.875 41.572 309.151 42.8614 307.861C44.1507 306.572 44.875 304.823 44.875 303C44.875 301.177 44.1507 299.428 42.8614 298.139C41.572 296.849 39.8234 296.125 38 296.125C36.1766 296.125 34.428 296.849 33.1386 298.139Z" fill="#848890"/>
<path d="M64.112 309V298.984H60.384V297.96H69.184V298.984H65.456V309H64.112ZM70.8745 299.496V297.96H72.3465V299.496H70.8745ZM70.9705 309V301H72.2505V309H70.9705ZM75.0643 309V301H76.3443V302.12C76.9363 301.304 77.7682 300.808 78.9203 300.808C80.0403 300.808 80.8563 301.288 81.2243 302.232C81.8802 301.16 82.9203 300.808 83.9923 300.808C85.5283 300.808 86.4883 301.688 86.4883 303.448V309H85.2083V303.608C85.2083 302.296 84.6643 301.72 83.5923 301.72C82.2963 301.72 81.4163 302.6 81.4163 304.088V309H80.1363V303.608C80.1363 302.296 79.5923 301.72 78.5203 301.72C77.2243 301.72 76.3443 302.6 76.3443 304.088V309H75.0643ZM96.1329 304.84C96.1329 304.984 96.1329 305.016 96.1169 305.192H90.1009C90.1649 307.352 91.2049 308.36 92.5489 308.36C93.6209 308.36 94.4049 307.832 94.8369 306.44L96.0369 306.808C95.4769 308.344 94.1969 309.192 92.5489 309.192C90.2769 309.192 88.7249 307.56 88.7249 305C88.7249 302.44 90.2769 300.808 92.5489 300.808C94.8049 300.808 96.1329 302.312 96.1329 304.84ZM92.5489 301.64C91.2849 301.64 90.2929 302.536 90.1169 304.44H94.7569C94.6289 302.504 93.7969 301.64 92.5489 301.64ZM101.721 309.192C99.4488 309.192 97.8968 307.56 97.8968 305C97.8968 302.44 99.4488 300.808 101.721 300.808C103.577 300.808 104.841 301.816 105.241 303.432L104.009 303.8C103.753 302.36 102.857 301.64 101.721 301.64C100.345 301.64 99.2728 302.712 99.2728 305C99.2728 307.288 100.345 308.36 101.721 308.36C102.857 308.36 103.753 307.64 104.009 306.2L105.241 306.568C104.841 308.184 103.577 309.192 101.721 309.192ZM109.125 309.192C107.541 309.192 106.613 308.344 106.613 307.064C106.613 305.72 107.541 305.24 109.317 304.68L110.389 304.344C111.541 303.976 111.877 303.768 111.877 303.064C111.877 302.168 111.429 301.64 110.229 301.64C108.885 301.64 108.229 302.248 108.181 303.672L106.901 303.48C107.077 301.672 108.309 300.808 110.229 300.808C112.325 300.808 113.141 301.672 113.141 303.448V307.688C113.141 308.104 113.269 308.2 113.557 308.2H113.989V309.08H113.285C112.389 309.08 111.941 308.632 111.941 307.736V307.304C111.429 308.584 110.325 309.192 109.125 309.192ZM109.413 308.36C110.949 308.36 111.877 307.032 111.877 305.464V304.472C111.669 304.664 111.253 304.808 110.565 305.032L109.669 305.32C108.469 305.704 107.909 306.088 107.909 306.984C107.909 307.784 108.373 308.36 109.413 308.36ZM116.002 309V301H117.282V302.312C117.73 301.224 118.466 300.904 119.586 300.904H119.922V302.024H119.186C117.954 302.024 117.282 302.616 117.282 303.992V309H116.002ZM124.528 309.192C122.368 309.192 120.944 307.56 120.944 305C120.944 302.44 122.368 300.808 124.528 300.808C125.664 300.808 126.576 301.256 127.184 302.104V297.48H128.464V309H127.216V307.8C126.688 308.648 125.712 309.192 124.528 309.192ZM124.688 308.36C126.096 308.36 127.248 307.208 127.248 305C127.248 302.792 126.096 301.64 124.688 301.64C123.376 301.64 122.32 302.712 122.32 305C122.32 307.288 123.376 308.36 124.688 308.36ZM133.987 309.192C132.035 309.192 131.059 308.312 130.483 307.192L131.635 306.584C132.019 307.656 132.851 308.392 133.987 308.392C135.219 308.392 135.795 307.88 135.795 307.016C135.795 306.2 135.459 305.768 134.147 305.512L133.251 305.336C131.603 305.016 130.787 304.36 130.787 303.144C130.787 301.624 132.131 300.824 133.763 300.824C135.283 300.824 136.403 301.464 137.011 302.648L135.891 303.24C135.459 302.056 134.611 301.624 133.731 301.624C132.611 301.624 132.035 302.104 132.035 302.952C132.035 303.608 132.483 304.04 133.699 304.28L134.611 304.456C136.275 304.776 137.139 305.432 137.139 306.84C137.139 308.168 136.099 309.192 133.987 309.192Z" fill="#1C1D1F"/>
<path d="M41.9067 345.5C40.2942 345.5 38.8808 346.194 38 347.367C37.1192 346.194 35.7067 345.5 34.0942 345.5C32.81 345.502 31.5789 346.012 30.6708 346.92C29.7627 347.828 29.2518 349.059 29.25 350.343C29.25 355.81 37.3583 360.24 37.7042 360.425C37.7952 360.474 37.8968 360.499 38 360.499C38.1032 360.499 38.2048 360.474 38.2958 360.425C38.6417 360.239 46.75 355.81 46.75 350.343C46.7485 349.059 46.2377 347.828 45.3297 346.92C44.4217 346.012 43.1907 345.502 41.9067 345.5ZM38 359.157C36.5742 358.326 30.5 354.538 30.5 350.343C30.5013 349.391 30.8804 348.477 31.5542 347.804C32.228 347.13 33.1414 346.751 34.0942 346.75C35.6133 346.75 36.8883 347.559 37.4217 348.862C37.6133 349.332 38.3858 349.332 38.5783 348.862C39.1117 347.559 40.3867 346.75 41.9067 346.75C42.8595 346.751 43.7729 347.13 44.4466 347.804C45.1203 348.478 45.4991 349.391 45.5 350.344C45.5 354.532 39.425 358.325 38 359.157Z" fill="#848890"/>
<path d="M61.472 359V347.96H66.4C68.576 347.96 69.76 349.016 69.76 350.712C69.76 352.056 68.96 352.84 68.032 353.208C69.216 353.608 70.16 354.536 70.16 356.008C70.16 357.848 68.896 359 66.624 359H61.472ZM62.816 352.84H66.128C67.568 352.84 68.384 352.04 68.384 350.84C68.384 349.496 67.568 348.92 66.128 348.92H62.816V352.84ZM62.816 358.04H66.288C67.904 358.04 68.752 357.352 68.752 355.864C68.752 354.536 67.904 353.768 66.288 353.768H62.816V358.04ZM79.3985 354.84C79.3985 354.984 79.3985 355.016 79.3825 355.192H73.3665C73.4305 357.352 74.4705 358.36 75.8145 358.36C76.8865 358.36 77.6705 357.832 78.1025 356.44L79.3025 356.808C78.7425 358.344 77.4625 359.192 75.8145 359.192C73.5425 359.192 71.9905 357.56 71.9905 355C71.9905 352.44 73.5425 350.808 75.8145 350.808C78.0705 350.808 79.3985 352.312 79.3985 354.84ZM75.8145 351.64C74.5505 351.64 73.5585 352.536 73.3825 354.44H78.0225C77.8945 352.504 77.0625 351.64 75.8145 351.64ZM81.6424 359V351H82.9224V352.12C83.5144 351.304 84.4104 350.808 85.5624 350.808C87.2584 350.808 88.2184 351.768 88.2184 353.528V359H86.9384V353.688C86.9384 352.456 86.4744 351.72 85.1624 351.72C83.8824 351.72 82.9224 352.6 82.9224 354.168V359H81.6424ZM97.8673 354.84C97.8673 354.984 97.8673 355.016 97.8513 355.192H91.8353C91.8993 357.352 92.9393 358.36 94.2833 358.36C95.3553 358.36 96.1393 357.832 96.5713 356.44L97.7713 356.808C97.2113 358.344 95.9313 359.192 94.2833 359.192C92.0113 359.192 90.4593 357.56 90.4593 355C90.4593 352.44 92.0113 350.808 94.2833 350.808C96.5393 350.808 97.8673 352.312 97.8673 354.84ZM94.2833 351.64C93.0193 351.64 92.0273 352.536 91.8513 354.44H96.4913C96.3633 352.504 95.5313 351.64 94.2833 351.64ZM100.481 359V351.8H99.0574V351H100.481V349.688C100.481 348.04 101.025 347.48 102.641 347.48H103.585V348.44H102.689C101.985 348.44 101.761 348.664 101.761 349.528V351H103.585V351.8H101.761V359H100.481ZM105.217 349.496V347.96H106.689V349.496H105.217ZM105.313 359V351H106.593V359H105.313ZM111.552 359C110.256 359 109.712 358.456 109.712 357.144V351.8H108.384V351H109.712V348.904H110.992V351H112.608V351.8H110.992V357.208C110.992 357.8 111.296 358.04 111.824 358.04H112.48V359H111.552ZM117.299 359.192C115.348 359.192 114.372 358.312 113.796 357.192L114.948 356.584C115.332 357.656 116.164 358.392 117.299 358.392C118.532 358.392 119.108 357.88 119.108 357.016C119.108 356.2 118.772 355.768 117.46 355.512L116.564 355.336C114.916 355.016 114.1 354.36 114.1 353.144C114.1 351.624 115.444 350.824 117.076 350.824C118.596 350.824 119.716 351.464 120.324 352.648L119.204 353.24C118.772 352.056 117.924 351.624 117.044 351.624C115.924 351.624 115.348 352.104 115.348 352.952C115.348 353.608 115.796 354.04 117.012 354.28L117.924 354.456C119.588 354.776 120.452 355.432 120.452 356.84C120.452 358.168 119.412 359.192 117.299 359.192Z" fill="#1C1D1F"/>
<path d="M39.875 395.5C39.7092 395.5 39.5503 395.566 39.4331 395.683C39.3158 395.8 39.25 395.959 39.25 396.125V399.25H35.5C35.3342 399.25 35.1753 399.316 35.0581 399.433C34.9408 399.55 34.875 399.709 34.875 399.875V403H31.75C31.5842 403 31.4253 403.066 31.3081 403.183C31.1908 403.3 31.125 403.459 31.125 403.625V408.625H30.5C30.3342 408.625 30.1753 408.691 30.0581 408.808C29.9408 408.925 29.875 409.084 29.875 409.25C29.875 409.416 29.9408 409.575 30.0581 409.692C30.1753 409.809 30.3342 409.875 30.5 409.875H45.5C45.6658 409.875 45.8247 409.809 45.9419 409.692C46.0592 409.575 46.125 409.416 46.125 409.25C46.125 409.084 46.0592 408.925 45.9419 408.808C45.8247 408.691 45.6658 408.625 45.5 408.625H44.875V396.125C44.875 395.959 44.8092 395.8 44.6919 395.683C44.5747 395.566 44.4158 395.5 44.25 395.5H39.875ZM43.625 408.625H40.5V396.75H43.625V408.625ZM39.25 408.625H36.125V400.5H39.25V408.625ZM32.375 404.25H34.875V408.625H32.375V404.25Z" fill="#848890"/>
<path d="M69.664 400.824C69.664 402.328 68.736 403.448 66.944 403.656L69.616 409H68.16L65.504 403.688H62.832V409H61.472V397.96H66.384C68.512 397.96 69.664 399.032 69.664 400.824ZM62.832 398.92V402.728H66.096C67.568 402.728 68.288 402.104 68.288 400.824C68.288 399.544 67.568 398.92 66.096 398.92H62.832ZM78.6485 404.84C78.6485 404.984 78.6485 405.016 78.6325 405.192H72.6165C72.6805 407.352 73.7205 408.36 75.0645 408.36C76.1365 408.36 76.9205 407.832 77.3525 406.44L78.5525 406.808C77.9925 408.344 76.7125 409.192 75.0645 409.192C72.7925 409.192 71.2405 407.56 71.2405 405C71.2405 402.44 72.7925 400.808 75.0645 400.808C77.3205 400.808 78.6485 402.312 78.6485 404.84ZM75.0645 401.64C73.8005 401.64 72.8085 402.536 72.6325 404.44H77.2725C77.1445 402.504 76.3125 401.64 75.0645 401.64ZM80.8924 412.52V401H82.1724V402.2C82.7324 401.384 83.6444 400.808 84.8284 400.808C86.9884 400.808 88.4124 402.44 88.4124 405C88.4124 407.56 86.9884 409.192 84.8284 409.192C83.7884 409.192 82.8124 408.808 82.1724 407.944V412.52H80.8924ZM84.6684 408.36C85.9804 408.36 87.0364 407.288 87.0364 405C87.0364 402.712 85.9804 401.64 84.6684 401.64C83.2604 401.64 82.1084 402.792 82.1084 405C82.1084 407.208 83.2604 408.36 84.6684 408.36ZM94.1278 409.192C91.8238 409.192 90.2718 407.56 90.2718 405C90.2718 402.44 91.8238 400.808 94.1278 400.808C96.4318 400.808 97.9838 402.44 97.9838 405C97.9838 407.56 96.4318 409.192 94.1278 409.192ZM94.1278 408.36C95.5358 408.36 96.6078 407.288 96.6078 405C96.6078 402.712 95.5358 401.64 94.1278 401.64C92.7198 401.64 91.6478 402.712 91.6478 405C91.6478 407.288 92.7198 408.36 94.1278 408.36ZM100.314 409V401H101.594V402.312C102.042 401.224 102.778 400.904 103.898 400.904H104.234V402.024H103.498C102.266 402.024 101.594 402.616 101.594 403.992V409H100.314ZM108.068 409C106.772 409 106.228 408.456 106.228 407.144V401.8H104.9V401H106.228V398.904H107.508V401H109.124V401.8H107.508V407.208C107.508 407.8 107.812 408.04 108.34 408.04H108.996V409H108.068ZM113.815 409.192C111.863 409.192 110.887 408.312 110.311 407.192L111.463 406.584C111.847 407.656 112.679 408.392 113.815 408.392C115.047 408.392 115.623 407.88 115.623 407.016C115.623 406.2 115.287 405.768 113.975 405.512L113.079 405.336C111.431 405.016 110.615 404.36 110.615 403.144C110.615 401.624 111.959 400.824 113.591 400.824C115.111 400.824 116.231 401.464 116.839 402.648L115.719 403.24C115.287 402.056 114.439 401.624 113.559 401.624C112.439 401.624 111.863 402.104 111.863 402.952C111.863 403.608 112.311 404.04 113.527 404.28L114.439 404.456C116.103 404.776 116.967 405.432 116.967 406.84C116.967 408.168 115.927 409.192 113.815 409.192Z" fill="#1C1D1F"/>
<path d="M44.6922 448.183L41.5672 445.058C41.5091 445 41.4402 444.954 41.3643 444.922C41.2884 444.891 41.2071 444.875 41.125 444.875H34.875C34.5435 444.875 34.2255 445.007 33.9911 445.241C33.7567 445.476 33.625 445.793 33.625 446.125V447.375H32.375C32.0435 447.375 31.7255 447.507 31.4911 447.741C31.2567 447.976 31.125 448.293 31.125 448.625V459.875C31.125 460.207 31.2567 460.524 31.4911 460.759C31.7255 460.993 32.0435 461.125 32.375 461.125H41.125C41.4565 461.125 41.7745 460.993 42.0089 460.759C42.2433 460.524 42.375 460.207 42.375 459.875V458.625H43.625C43.9565 458.625 44.2745 458.493 44.5089 458.259C44.7433 458.024 44.875 457.707 44.875 457.375V448.625C44.8751 448.543 44.859 448.462 44.8276 448.386C44.7962 448.31 44.7502 448.241 44.6922 448.183ZM41.125 459.875H32.375V448.625H38.3664L41.125 451.384V457.987C41.125 457.992 41.125 457.996 41.125 458C41.125 458.004 41.125 458.008 41.125 458.013V459.875ZM43.625 457.375H42.375V451.125C42.3751 451.043 42.359 450.962 42.3276 450.886C42.2962 450.81 42.2502 450.741 42.1922 450.683L39.0672 447.558C39.0091 447.5 38.9402 447.454 38.8643 447.422C38.7884 447.391 38.7071 447.375 38.625 447.375H34.875V446.125H40.8664L43.625 448.884V457.375ZM39.25 454.875C39.25 455.041 39.1842 455.2 39.0669 455.317C38.9497 455.434 38.7908 455.5 38.625 455.5H34.875C34.7092 455.5 34.5503 455.434 34.4331 455.317C34.3158 455.2 34.25 455.041 34.25 454.875C34.25 454.709 34.3158 454.55 34.4331 454.433C34.5503 454.316 34.7092 454.25 34.875 454.25H38.625C38.7908 454.25 38.9497 454.316 39.0669 454.433C39.1842 454.55 39.25 454.709 39.25 454.875ZM39.25 457.375C39.25 457.541 39.1842 457.7 39.0669 457.817C38.9497 457.934 38.7908 458 38.625 458H34.875C34.7092 458 34.5503 457.934 34.4331 457.817C34.3158 457.7 34.25 457.541 34.25 457.375C34.25 457.209 34.3158 457.05 34.4331 456.933C34.5503 456.816 34.7092 456.75 34.875 456.75H38.625C38.7908 456.75 38.9497 456.816 39.0669 456.933C39.1842 457.05 39.25 457.209 39.25 457.375Z" fill="#848890"/>
<path d="M61.472 459V447.96H65.648C68.72 447.96 71.04 450.072 71.04 453.48C71.04 456.872 68.72 459 65.648 459H61.472ZM62.816 458.04H65.36C67.952 458.04 69.6 456.424 69.6 453.48C69.6 450.536 67.952 448.92 65.36 448.92H62.816V458.04ZM76.6903 459.192C74.3863 459.192 72.8343 457.56 72.8343 455C72.8343 452.44 74.3863 450.808 76.6903 450.808C78.9943 450.808 80.5463 452.44 80.5463 455C80.5463 457.56 78.9943 459.192 76.6903 459.192ZM76.6903 458.36C78.0983 458.36 79.1703 457.288 79.1703 455C79.1703 452.712 78.0983 451.64 76.6903 451.64C75.2823 451.64 74.2103 452.712 74.2103 455C74.2103 457.288 75.2823 458.36 76.6903 458.36ZM86.2208 459.192C83.9488 459.192 82.3968 457.56 82.3968 455C82.3968 452.44 83.9488 450.808 86.2208 450.808C88.0768 450.808 89.3408 451.816 89.7408 453.432L88.5088 453.8C88.2528 452.36 87.3568 451.64 86.2208 451.64C84.8448 451.64 83.7728 452.712 83.7728 455C83.7728 457.288 84.8448 458.36 86.2208 458.36C87.3568 458.36 88.2528 457.64 88.5088 456.2L89.7408 456.568C89.3408 458.184 88.0768 459.192 86.2208 459.192ZM94.2805 459.192C92.5845 459.192 91.6245 458.28 91.6245 456.536V451H92.9045V456.376C92.9045 457.592 93.3685 458.28 94.6805 458.28C96.0405 458.28 96.9205 457.448 96.9205 455.832V451H98.2005V459H96.9205V457.88C96.3605 458.728 95.5605 459.192 94.2805 459.192ZM101.017 459V451H102.297V452.12C102.889 451.304 103.721 450.808 104.873 450.808C105.993 450.808 106.809 451.288 107.177 452.232C107.833 451.16 108.873 450.808 109.945 450.808C111.481 450.808 112.441 451.688 112.441 453.448V459H111.161V453.608C111.161 452.296 110.617 451.72 109.545 451.72C108.249 451.72 107.369 452.6 107.369 454.088V459H106.089V453.608C106.089 452.296 105.545 451.72 104.473 451.72C103.177 451.72 102.297 452.6 102.297 454.088V459H101.017ZM122.086 454.84C122.086 454.984 122.086 455.016 122.07 455.192H116.054C116.118 457.352 117.158 458.36 118.502 458.36C119.574 458.36 120.358 457.832 120.79 456.44L121.99 456.808C121.43 458.344 120.15 459.192 118.502 459.192C116.23 459.192 114.678 457.56 114.678 455C114.678 452.44 116.23 450.808 118.502 450.808C120.758 450.808 122.086 452.312 122.086 454.84ZM118.502 451.64C117.238 451.64 116.246 452.536 116.07 454.44H120.71C120.582 452.504 119.75 451.64 118.502 451.64ZM124.33 459V451H125.61V452.12C126.202 451.304 127.098 450.808 128.25 450.808C129.946 450.808 130.906 451.768 130.906 453.528V459H129.626V453.688C129.626 452.456 129.162 451.72 127.85 451.72C126.57 451.72 125.61 452.6 125.61 454.168V459H124.33ZM135.708 459C134.412 459 133.868 458.456 133.868 457.144V451.8H132.54V451H133.868V448.904H135.148V451H136.764V451.8H135.148V457.208C135.148 457.8 135.452 458.04 135.98 458.04H136.636V459H135.708ZM141.456 459.192C139.504 459.192 138.528 458.312 137.952 457.192L139.104 456.584C139.488 457.656 140.32 458.392 141.456 458.392C142.688 458.392 143.264 457.88 143.264 457.016C143.264 456.2 142.928 455.768 141.616 455.512L140.72 455.336C139.072 455.016 138.256 454.36 138.256 453.144C138.256 451.624 139.6 450.824 141.232 450.824C142.752 450.824 143.872 451.464 144.48 452.648L143.36 453.24C142.928 452.056 142.08 451.624 141.2 451.624C140.08 451.624 139.504 452.104 139.504 452.952C139.504 453.608 139.952 454.04 141.168 454.28L142.08 454.456C143.744 454.776 144.608 455.432 144.608 456.84C144.608 458.168 143.568 459.192 141.456 459.192Z" fill="#1C1D1F"/>
<path d="M46.0407 509.562C44.8508 507.505 43.0172 506.03 40.8774 505.331C41.9358 504.701 42.7582 503.741 43.2182 502.598C43.6781 501.455 43.7503 500.193 43.4235 499.006C43.0968 497.818 42.3892 496.77 41.4094 496.024C40.4296 495.277 39.2318 494.873 38 494.873C36.7682 494.873 35.5704 495.277 34.5907 496.024C33.6109 496.77 32.9033 497.818 32.5765 499.006C32.2498 500.193 32.3219 501.455 32.7819 502.598C33.2419 503.741 34.0642 504.701 35.1227 505.331C32.9828 506.03 31.1492 507.505 29.9594 509.562C29.9158 509.634 29.8868 509.713 29.8743 509.795C29.8617 509.878 29.8659 509.962 29.8864 510.043C29.9069 510.124 29.9434 510.2 29.9938 510.266C30.0441 510.333 30.1073 510.389 30.1796 510.43C30.2519 510.472 30.3318 510.499 30.4146 510.509C30.4974 510.52 30.5814 510.513 30.6618 510.491C30.7421 510.468 30.8171 510.43 30.8823 510.377C30.9475 510.325 31.0016 510.261 31.0414 510.187C32.5133 507.644 35.1149 506.125 38 506.125C40.8852 506.125 43.4867 507.644 44.9586 510.187C44.9985 510.261 45.0526 510.325 45.1178 510.377C45.183 510.43 45.258 510.468 45.3383 510.491C45.4186 510.513 45.5027 510.52 45.5855 510.509C45.6683 510.499 45.7482 510.472 45.8205 510.43C45.8927 510.389 45.9559 510.333 46.0063 510.266C46.0566 510.2 46.0932 510.124 46.1137 510.043C46.1342 509.962 46.1383 509.878 46.1258 509.795C46.1132 509.713 46.0843 509.634 46.0407 509.562ZM33.625 500.5C33.625 499.635 33.8816 498.789 34.3623 498.069C34.8431 497.35 35.5264 496.789 36.3258 496.458C37.1252 496.127 38.0049 496.04 38.8535 496.209C39.7022 496.378 40.4818 496.794 41.0936 497.406C41.7055 498.018 42.1222 498.798 42.291 499.646C42.4598 500.495 42.3731 501.375 42.042 502.174C41.7109 502.974 41.1501 503.657 40.4306 504.138C39.7112 504.618 38.8653 504.875 38 504.875C36.8401 504.874 35.728 504.412 34.9078 503.592C34.0876 502.772 33.6263 501.66 33.625 500.5Z" fill="#848890"/>
<path d="M64.112 509V505.624L60.16 497.96H61.696L64.688 504.008L64.896 504.584H64.96L65.168 504.008L68.032 497.96H69.392L65.456 505.688V509H64.112ZM73.2059 509.192C70.9019 509.192 69.3499 507.56 69.3499 505C69.3499 502.44 70.9019 500.808 73.2059 500.808C75.5099 500.808 77.0619 502.44 77.0619 505C77.0619 507.56 75.5099 509.192 73.2059 509.192ZM73.2059 508.36C74.6139 508.36 75.6859 507.288 75.6859 505C75.6859 502.712 74.6139 501.64 73.2059 501.64C71.7979 501.64 70.7259 502.712 70.7259 505C70.7259 507.288 71.7979 508.36 73.2059 508.36ZM81.9524 509.192C80.2564 509.192 79.2964 508.28 79.2964 506.536V501H80.5764V506.376C80.5764 507.592 81.0404 508.28 82.3524 508.28C83.7124 508.28 84.5924 507.448 84.5924 505.832V501H85.8724V509H84.5924V507.88C84.0324 508.728 83.2324 509.192 81.9524 509.192Z" fill="#1C1D1F"/>
<path d="M215.942 496.308C215.823 496.198 215.666 496.138 215.505 496.141C215.343 496.144 215.188 496.209 215.074 496.324C214.959 496.438 214.894 496.593 214.891 496.755C214.888 496.917 214.948 497.073 215.058 497.192L220.867 503L215.058 508.808C214.997 508.866 214.948 508.935 214.913 509.011C214.879 509.088 214.861 509.171 214.859 509.255C214.858 509.339 214.873 509.422 214.905 509.5C214.936 509.578 214.983 509.648 215.042 509.708C215.102 509.767 215.172 509.814 215.25 509.845C215.328 509.877 215.411 509.892 215.495 509.891C215.579 509.889 215.662 509.871 215.739 509.837C215.815 509.802 215.884 509.753 215.942 509.692L222.192 503.442C222.309 503.325 222.374 503.166 222.374 503C222.374 502.834 222.309 502.676 222.192 502.558L215.942 496.308Z" fill="#848890"/>
<path d="M37.9998 549.25C37.2581 549.25 36.5331 549.47 35.9164 549.882C35.2997 550.294 34.8191 550.88 34.5352 551.565C34.2514 552.25 34.1772 553.004 34.3218 553.732C34.4665 554.459 34.8237 555.127 35.3481 555.652C35.8726 556.176 36.5408 556.533 37.2682 556.678C37.9956 556.823 38.7496 556.748 39.4349 556.465C40.1201 556.181 40.7057 555.7 41.1178 555.083C41.5299 554.467 41.7498 553.742 41.7498 553C41.7488 552.006 41.3533 551.053 40.6503 550.35C39.9473 549.646 38.994 549.251 37.9998 549.25ZM37.9998 555.5C37.5053 555.5 37.022 555.353 36.6109 555.079C36.1997 554.804 35.8793 554.414 35.6901 553.957C35.5009 553.5 35.4514 552.997 35.5478 552.512C35.6443 552.027 35.8824 551.582 36.232 551.232C36.5817 550.883 37.0271 550.645 37.5121 550.548C37.997 550.452 38.4997 550.501 38.9565 550.69C39.4133 550.88 39.8038 551.2 40.0785 551.611C40.3532 552.022 40.4998 552.506 40.4998 553C40.4998 553.663 40.2364 554.299 39.7676 554.768C39.2987 555.237 38.6628 555.5 37.9998 555.5ZM44.8748 553.169C44.8779 553.056 44.8779 552.944 44.8748 552.831L46.0404 551.375C46.1015 551.299 46.1438 551.209 46.1639 551.113C46.184 551.017 46.1813 550.918 46.156 550.823C45.965 550.105 45.6791 549.416 45.306 548.773C45.2572 548.689 45.1894 548.617 45.108 548.564C45.0266 548.51 44.9339 548.477 44.8373 548.466L42.9842 548.259C42.9071 548.178 42.829 548.1 42.7498 548.025L42.531 546.167C42.5198 546.071 42.4861 545.978 42.4327 545.896C42.3792 545.815 42.3075 545.747 42.2232 545.698C41.5801 545.326 40.8905 545.041 40.1724 544.849C40.0778 544.824 39.9786 544.822 39.8828 544.842C39.787 544.862 39.6973 544.904 39.6209 544.966L38.1685 546.125C38.056 546.125 37.9435 546.125 37.831 546.125L36.3748 544.962C36.2983 544.901 36.2086 544.858 36.1128 544.838C36.017 544.818 35.9178 544.821 35.8232 544.846C35.1051 545.038 34.4155 545.323 33.7724 545.696C33.6883 545.745 33.6168 545.813 33.5635 545.894C33.5102 545.976 33.4766 546.068 33.4654 546.165L33.2592 548.021C33.1779 548.099 33.0998 548.177 33.0248 548.256L31.167 548.469C31.0703 548.48 30.9775 548.514 30.8961 548.567C30.8148 548.621 30.747 548.692 30.6982 548.777C30.3258 549.42 30.0403 550.109 29.849 550.827C29.8239 550.922 29.8213 551.021 29.8415 551.117C29.8617 551.213 29.9042 551.303 29.9654 551.379L31.1248 552.831C31.1248 552.944 31.1248 553.056 31.1248 553.169L29.9615 554.625C29.9004 554.701 29.8581 554.791 29.838 554.887C29.8179 554.983 29.8206 555.082 29.8459 555.177C30.037 555.895 30.3228 556.585 30.6959 557.227C30.7447 557.312 30.8125 557.383 30.8939 557.436C30.9753 557.49 31.068 557.523 31.1646 557.534L33.0178 557.741C33.0954 557.822 33.1735 557.9 33.2521 557.975L33.4685 559.833C33.4798 559.93 33.5135 560.022 33.5669 560.104C33.6204 560.185 33.6921 560.253 33.7764 560.302C34.4195 560.674 35.109 560.96 35.8271 561.151C35.9218 561.176 36.021 561.179 36.1168 561.158C36.2126 561.138 36.3023 561.096 36.3787 561.034L37.831 559.875C37.9435 559.878 38.056 559.878 38.1685 559.875L39.6248 561.041C39.7013 561.102 39.791 561.144 39.8868 561.164C39.9826 561.184 40.0818 561.182 40.1764 561.156C40.8946 560.965 41.5843 560.679 42.2271 560.306C42.3113 560.257 42.3828 560.19 42.4361 560.108C42.4894 560.027 42.523 559.934 42.5342 559.838L42.7404 557.984C42.8217 557.907 42.8998 557.829 42.9748 557.75L44.8326 557.531C44.9293 557.52 45.0221 557.486 45.1034 557.433C45.1848 557.379 45.2526 557.308 45.3014 557.223C45.6737 556.58 45.9593 555.891 46.1506 555.173C46.1757 555.078 46.1783 554.979 46.1581 554.883C46.1379 554.787 46.0954 554.698 46.0342 554.621L44.8748 553.169ZM43.617 552.661C43.6303 552.887 43.6303 553.113 43.617 553.339C43.6077 553.494 43.6561 553.646 43.7529 553.767L44.8615 555.152C44.7343 555.557 44.5714 555.949 44.3748 556.324L42.6092 556.524C42.4554 556.541 42.3134 556.615 42.2107 556.731C42.0603 556.9 41.9002 557.06 41.731 557.21C41.6153 557.313 41.5419 557.455 41.5248 557.609L41.3287 559.373C40.9533 559.569 40.5611 559.732 40.1568 559.859L38.7709 558.751C38.66 558.662 38.5222 558.614 38.3803 558.614H38.3428C38.1169 558.627 37.8905 558.627 37.6646 558.614C37.51 558.605 37.3574 558.653 37.2365 558.75L35.8474 559.859C35.4432 559.732 35.051 559.569 34.6756 559.373L34.4756 557.609C34.4585 557.456 34.385 557.314 34.2693 557.211C34.1002 557.061 33.94 556.9 33.7896 556.731C33.6869 556.616 33.545 556.542 33.3912 556.525L31.6271 556.328C31.4304 555.953 31.2675 555.561 31.1404 555.156L32.249 553.77C32.3458 553.649 32.3943 553.497 32.3849 553.342C32.3717 553.116 32.3717 552.89 32.3849 552.664C32.3943 552.509 32.3458 552.357 32.249 552.236L31.1404 550.848C31.2676 550.443 31.4305 550.051 31.6271 549.676L33.3904 549.476C33.5442 549.459 33.6861 549.385 33.7889 549.27C33.9392 549.1 34.0994 548.94 34.2685 548.79C34.3847 548.687 34.4585 548.545 34.4756 548.391L34.6717 546.627C35.0471 546.431 35.4392 546.268 35.8435 546.141L37.2295 547.249C37.3504 547.346 37.503 547.394 37.6576 547.385C37.8835 547.372 38.1099 547.372 38.3357 547.385C38.4904 547.394 38.6429 547.346 38.7639 547.249L40.1521 546.141C40.5564 546.268 40.9486 546.431 41.324 546.627L41.524 548.391C41.5411 548.544 41.6146 548.686 41.7303 548.789C41.8994 548.939 42.0596 549.1 42.2099 549.269C42.3127 549.384 42.4546 549.458 42.6084 549.475L44.3724 549.671C44.5692 550.047 44.7321 550.439 44.8592 550.843L43.7506 552.229C43.6528 552.351 43.6043 552.505 43.6146 552.661H43.617Z" fill="#848890"/>
<path d="M66.384 559.192C63.248 559.192 60.864 557.064 60.864 553.48C60.864 549.896 63.248 547.768 66.384 547.768C68.784 547.768 70.72 549.128 71.392 551.496L70.016 551.912C69.568 549.816 68.224 548.728 66.384 548.728C64.016 548.728 62.304 550.392 62.304 553.48C62.304 556.568 64.016 558.232 66.384 558.232C68.224 558.232 69.568 557.144 70.016 555.048L71.392 555.464C70.72 557.832 68.784 559.192 66.384 559.192ZM76.8465 559.192C74.5425 559.192 72.9905 557.56 72.9905 555C72.9905 552.44 74.5425 550.808 76.8465 550.808C79.1505 550.808 80.7025 552.44 80.7025 555C80.7025 557.56 79.1505 559.192 76.8465 559.192ZM76.8465 558.36C78.2545 558.36 79.3265 557.288 79.3265 555C79.3265 552.712 78.2545 551.64 76.8465 551.64C75.4385 551.64 74.3665 552.712 74.3665 555C74.3665 557.288 75.4385 558.36 76.8465 558.36ZM83.033 559V551H84.313V552.12C84.905 551.304 85.737 550.808 86.889 550.808C88.009 550.808 88.825 551.288 89.193 552.232C89.849 551.16 90.889 550.808 91.961 550.808C93.497 550.808 94.457 551.688 94.457 553.448V559H93.177V553.608C93.177 552.296 92.633 551.72 91.561 551.72C90.265 551.72 89.385 552.6 89.385 554.088V559H88.105V553.608C88.105 552.296 87.561 551.72 86.489 551.72C85.193 551.72 84.313 552.6 84.313 554.088V559H83.033ZM97.1736 562.52V551H98.4536V552.2C99.0136 551.384 99.9256 550.808 101.11 550.808C103.27 550.808 104.694 552.44 104.694 555C104.694 557.56 103.27 559.192 101.11 559.192C100.07 559.192 99.0936 558.808 98.4536 557.944V562.52H97.1736ZM100.95 558.36C102.262 558.36 103.318 557.288 103.318 555C103.318 552.712 102.262 551.64 100.95 551.64C99.5416 551.64 98.3896 552.792 98.3896 555C98.3896 557.208 99.5416 558.36 100.95 558.36ZM108.937 559.192C107.353 559.192 106.425 558.344 106.425 557.064C106.425 555.72 107.353 555.24 109.129 554.68L110.201 554.344C111.353 553.976 111.689 553.768 111.689 553.064C111.689 552.168 111.241 551.64 110.041 551.64C108.697 551.64 108.041 552.248 107.993 553.672L106.713 553.48C106.889 551.672 108.121 550.808 110.041 550.808C112.137 550.808 112.953 551.672 112.953 553.448V557.688C112.953 558.104 113.081 558.2 113.369 558.2H113.801V559.08H113.097C112.201 559.08 111.753 558.632 111.753 557.736V557.304C111.241 558.584 110.137 559.192 108.937 559.192ZM109.225 558.36C110.761 558.36 111.689 557.032 111.689 555.464V554.472C111.481 554.664 111.065 554.808 110.377 555.032L109.481 555.32C108.281 555.704 107.721 556.088 107.721 556.984C107.721 557.784 108.185 558.36 109.225 558.36ZM115.814 559V551H117.094V552.12C117.686 551.304 118.582 550.808 119.734 550.808C121.43 550.808 122.39 551.768 122.39 553.528V559H121.11V553.688C121.11 552.456 120.646 551.72 119.334 551.72C118.054 551.72 117.094 552.6 117.094 554.168V559H115.814ZM124.649 562.52V561.512H125.385C126.105 561.512 126.409 561.32 126.665 560.568L127.081 559.32L123.897 551H125.289L127.497 557.24L127.609 557.72H127.673L129.913 551H131.081L127.657 560.872C127.241 562.088 126.713 562.52 125.401 562.52H124.649ZM138.846 559.192C136.894 559.192 135.918 558.312 135.342 557.192L136.494 556.584C136.878 557.656 137.71 558.392 138.846 558.392C140.078 558.392 140.654 557.88 140.654 557.016C140.654 556.2 140.318 555.768 139.006 555.512L138.11 555.336C136.462 555.016 135.646 554.36 135.646 553.144C135.646 551.624 136.99 550.824 138.622 550.824C140.142 550.824 141.262 551.464 141.87 552.648L140.75 553.24C140.318 552.056 139.47 551.624 138.59 551.624C137.47 551.624 136.894 552.104 136.894 552.952C136.894 553.608 137.342 554.04 138.558 554.28L139.47 554.456C141.134 554.776 141.998 555.432 141.998 556.84C141.998 558.168 140.958 559.192 138.846 559.192ZM151.039 554.84C151.039 554.984 151.039 555.016 151.023 555.192H145.007C145.071 557.352 146.111 558.36 147.455 558.36C148.527 558.36 149.311 557.832 149.743 556.44L150.943 556.808C150.383 558.344 149.103 559.192 147.455 559.192C145.183 559.192 143.631 557.56 143.631 555C143.631 552.44 145.183 550.808 147.455 550.808C149.711 550.808 151.039 552.312 151.039 554.84ZM147.455 551.64C146.191 551.64 145.199 552.536 145.023 554.44H149.663C149.535 552.504 148.703 551.64 147.455 551.64ZM155.302 559C154.006 559 153.462 558.456 153.462 557.144V551.8H152.134V551H153.462V548.904H154.742V551H156.358V551.8H154.742V557.208C154.742 557.8 155.046 558.04 155.574 558.04H156.23V559H155.302ZM160.49 559C159.194 559 158.65 558.456 158.65 557.144V551.8H157.322V551H158.65V548.904H159.93V551H161.546V551.8H159.93V557.208C159.93 557.8 160.234 558.04 160.762 558.04H161.418V559H160.49ZM163.437 549.496V547.96H164.909V549.496H163.437ZM163.533 559V551H164.813V559H163.533ZM167.627 559V551H168.907V552.12C169.499 551.304 170.395 550.808 171.547 550.808C173.243 550.808 174.203 551.768 174.203 553.528V559H172.923V553.688C172.923 552.456 172.459 551.72 171.147 551.72C169.867 551.72 168.907 552.6 168.907 554.168V559H167.627ZM179.852 562.712C177.036 562.712 176.028 561.864 176.028 560.616C176.028 559.784 176.524 559.208 177.276 559C176.732 558.744 176.476 558.344 176.476 557.752C176.476 557.048 176.972 556.408 178.076 556.248C177.244 555.816 176.716 554.936 176.716 553.736C176.716 551.992 177.916 550.808 179.916 550.808C181.372 550.808 182.3 551.448 182.652 552.12C182.748 551.096 183.212 550.584 184.06 550.584H184.252V551.896H183.932C183.34 551.896 183.084 552.184 182.924 552.6C183.052 552.984 183.116 553.384 183.116 553.736C183.116 555.464 181.948 556.664 179.916 556.664H178.828C177.932 556.664 177.564 557 177.564 557.48C177.564 557.928 177.932 558.152 178.508 558.152H181.356C183.052 558.152 183.98 558.84 183.98 560.248C183.98 561.704 182.828 562.712 179.852 562.712ZM179.916 555.864C181.052 555.864 181.836 555.16 181.836 553.736C181.836 552.312 181.052 551.608 179.916 551.608C178.78 551.608 177.996 552.312 177.996 553.736C177.996 555.16 178.78 555.864 179.916 555.864ZM179.852 561.896C181.964 561.896 182.812 561.368 182.812 560.376C182.812 559.64 182.316 559.24 181.244 559.24H178.86C177.756 559.24 177.244 559.688 177.244 560.44C177.244 561.336 177.9 561.896 179.852 561.896ZM188.612 559.192C186.66 559.192 185.684 558.312 185.108 557.192L186.26 556.584C186.644 557.656 187.476 558.392 188.612 558.392C189.844 558.392 190.42 557.88 190.42 557.016C190.42 556.2 190.084 555.768 188.772 555.512L187.876 555.336C186.228 555.016 185.412 554.36 185.412 553.144C185.412 551.624 186.756 550.824 188.388 550.824C189.908 550.824 191.028 551.464 191.636 552.648L190.516 553.24C190.084 552.056 189.236 551.624 188.356 551.624C187.236 551.624 186.66 552.104 186.66 552.952C186.66 553.608 187.108 554.04 188.324 554.28L189.236 554.456C190.9 554.776 191.764 555.432 191.764 556.84C191.764 558.168 190.724 559.192 188.612 559.192Z" fill="#1C1D1F"/>
<path d="M215.942 546.308C215.823 546.198 215.666 546.138 215.505 546.141C215.343 546.144 215.188 546.209 215.074 546.324C214.959 546.438 214.894 546.593 214.891 546.755C214.888 546.917 214.948 547.073 215.058 547.192L220.867 553L215.058 558.808C214.997 558.866 214.948 558.935 214.913 559.011C214.879 559.088 214.861 559.171 214.859 559.255C214.858 559.339 214.873 559.422 214.905 559.5C214.936 559.578 214.983 559.648 215.042 559.708C215.102 559.767 215.172 559.814 215.25 559.845C215.328 559.877 215.411 559.892 215.495 559.891C215.579 559.889 215.662 559.871 215.739 559.837C215.815 559.802 215.884 559.753 215.942 559.692L222.192 553.442C222.309 553.325 222.374 553.166 222.374 553C222.374 552.834 222.309 552.676 222.192 552.558L215.942 546.308Z" fill="#848890"/>
<rect x="12" y="580" width="232" height="4" fill="#F7F8FB"/>
</g>
<path d="M38.9375 1063.06C38.9375 1063.25 38.8825 1063.43 38.7795 1063.58C38.6765 1063.74 38.5301 1063.86 38.3588 1063.93C38.1875 1064 37.999 1064.02 37.8171 1063.98C37.6352 1063.95 37.4682 1063.86 37.3371 1063.73C37.206 1063.59 37.1167 1063.43 37.0805 1063.25C37.0443 1063.06 37.0629 1062.88 37.1339 1062.7C37.2048 1062.53 37.325 1062.39 37.4792 1062.28C37.6333 1062.18 37.8146 1062.13 38 1062.13C38.2486 1062.13 38.4871 1062.22 38.6629 1062.4C38.8387 1062.58 38.9375 1062.81 38.9375 1063.06ZM38 1054.63C36.2766 1054.63 34.875 1055.89 34.875 1057.44V1057.75C34.875 1057.92 34.9409 1058.07 35.0581 1058.19C35.1753 1058.31 35.3342 1058.38 35.5 1058.38C35.6658 1058.38 35.8247 1058.31 35.9419 1058.19C36.0592 1058.07 36.125 1057.92 36.125 1057.75V1057.44C36.125 1056.58 36.9664 1055.88 38 1055.88C39.0336 1055.88 39.875 1056.58 39.875 1057.44C39.875 1058.3 39.0336 1059 38 1059C37.8342 1059 37.6753 1059.07 37.5581 1059.18C37.4409 1059.3 37.375 1059.46 37.375 1059.62V1060.25C37.375 1060.42 37.4409 1060.57 37.5581 1060.69C37.6753 1060.81 37.8342 1060.88 38 1060.88C38.1658 1060.88 38.3247 1060.81 38.4419 1060.69C38.5592 1060.57 38.625 1060.42 38.625 1060.25V1060.19C40.05 1059.93 41.125 1058.8 41.125 1057.44C41.125 1055.89 39.7234 1054.63 38 1054.63ZM46.125 1059C46.125 1060.61 45.6485 1062.18 44.7557 1063.51C43.8629 1064.85 42.594 1065.89 41.1093 1066.51C39.6247 1067.12 37.991 1067.28 36.4149 1066.97C34.8388 1066.66 33.3911 1065.88 32.2548 1064.75C31.1185 1063.61 30.3446 1062.16 30.0311 1060.59C29.7176 1059.01 29.8785 1057.38 30.4935 1055.89C31.1084 1054.41 32.1498 1053.14 33.486 1052.24C34.8221 1051.35 36.393 1050.88 38 1050.88C40.1542 1050.88 42.2195 1051.73 43.7427 1053.26C45.266 1054.78 46.1227 1056.85 46.125 1059ZM44.875 1059C44.875 1057.64 44.4718 1056.31 43.7164 1055.18C42.9609 1054.05 41.8872 1053.17 40.631 1052.65C39.3747 1052.13 37.9924 1051.99 36.6588 1052.26C35.3251 1052.52 34.1001 1053.18 33.1386 1054.14C32.1772 1055.1 31.5224 1056.33 31.2571 1057.66C30.9918 1058.99 31.128 1060.37 31.6483 1061.63C32.1687 1062.89 33.0499 1063.96 34.1805 1064.72C35.311 1065.47 36.6403 1065.88 38 1065.88C39.8227 1065.87 41.5702 1065.15 42.8591 1063.86C44.1479 1062.57 44.8729 1060.82 44.875 1059Z" fill="#848890"/>
<path d="M61.472 1065V1053.96H62.816V1058.76H68.736V1053.96H70.08V1065H68.736V1059.75H62.816V1065H61.472ZM79.8829 1060.84C79.8829 1060.98 79.8829 1061.02 79.8669 1061.19H73.8509C73.9149 1063.35 74.9549 1064.36 76.2989 1064.36C77.3709 1064.36 78.1549 1063.83 78.5869 1062.44L79.7869 1062.81C79.2269 1064.34 77.9469 1065.19 76.2989 1065.19C74.0269 1065.19 72.4749 1063.56 72.4749 1061C72.4749 1058.44 74.0269 1056.81 76.2989 1056.81C78.5549 1056.81 79.8829 1058.31 79.8829 1060.84ZM76.2989 1057.64C75.0349 1057.64 74.0429 1058.54 73.8669 1060.44H78.5069C78.3789 1058.5 77.5469 1057.64 76.2989 1057.64ZM82.1268 1065V1053.48H83.4068V1065H82.1268ZM86.2205 1068.52V1057H87.5005V1058.2C88.0605 1057.38 88.9725 1056.81 90.1565 1056.81C92.3165 1056.81 93.7405 1058.44 93.7405 1061C93.7405 1063.56 92.3165 1065.19 90.1565 1065.19C89.1165 1065.19 88.1405 1064.81 87.5005 1063.94V1068.52H86.2205ZM89.9965 1064.36C91.3085 1064.36 92.3645 1063.29 92.3645 1061C92.3645 1058.71 91.3085 1057.64 89.9965 1057.64C88.5885 1057.64 87.4365 1058.79 87.4365 1061C87.4365 1063.21 88.5885 1064.36 89.9965 1064.36Z" fill="#1C1D1F"/>
<g clip-path="url(#clip2_4707_25647)">
<circle cx="44" cy="1114" r="16" fill="#C7E8FF"/>
<path d="M37.6292 1119.14C35.5532 1119.14 34.8812 1117.93 34.7252 1116.58L36.4652 1116.23C36.5132 1117.38 36.8972 1117.88 37.6652 1117.88C38.3732 1117.88 38.7092 1117.55 38.7092 1116.58V1110.72H40.5332V1116.19C40.5332 1118.27 39.6572 1119.14 37.6292 1119.14ZM44.0493 1119L41.7573 1110.72H43.6053L45.0213 1116.6L45.1413 1117.1H45.1893L45.3093 1116.6L47.0493 1110.72H48.2133L49.9173 1116.6L50.0373 1117.1H50.0853L50.2053 1116.6L51.6453 1110.72H53.2893L51.0093 1119H48.9573L47.6253 1114.18L47.5173 1113.67H47.4693L47.3613 1114.18L46.0893 1119H44.0493Z" fill="#1C1D1F"/>
</g>
<path d="M76.24 1120.19C73.472 1120.19 72.576 1118.58 72.368 1116.77L74.688 1116.3C74.752 1117.84 75.264 1118.51 76.288 1118.51C77.232 1118.51 77.68 1118.06 77.68 1116.77V1108.96H80.112V1116.26C80.112 1119.02 78.944 1120.19 76.24 1120.19ZM84.9121 1120.19C83.2001 1120.19 82.3361 1119.26 82.3361 1117.31V1112H84.6881V1117.31C84.6881 1118.22 85.0721 1118.66 85.8561 1118.66C86.8161 1118.66 87.3601 1118.08 87.3601 1116.83V1112H89.7121V1120H87.3601V1118.86C86.8481 1119.78 86.0801 1120.19 84.9121 1120.19ZM95.0685 1120.19C93.1485 1120.19 92.0605 1119.5 91.3245 1118.3L93.0685 1117.42C93.4525 1118.27 94.2365 1118.8 95.0685 1118.8C95.8685 1118.8 96.2685 1118.46 96.2685 1117.95C96.2685 1117.41 95.9485 1117.12 94.9725 1116.93L93.9645 1116.72C92.4285 1116.4 91.6125 1115.62 91.6125 1114.35C91.6125 1112.74 92.9405 1111.82 94.8765 1111.82C96.4285 1111.82 97.5965 1112.34 98.2845 1113.58L96.6045 1114.45C96.1885 1113.5 95.5965 1113.2 94.9245 1113.2C94.1405 1113.2 93.7885 1113.54 93.7885 1114.06C93.7885 1114.54 94.1565 1114.82 95.0045 1114.98L96.0445 1115.18C97.7085 1115.5 98.5245 1116.21 98.5245 1117.6C98.5245 1118.99 97.5165 1120.19 95.0685 1120.19ZM102.794 1120C101.066 1120 100.41 1119.34 100.41 1117.68V1113.39H99.1303V1112H100.41V1109.9H102.762V1112H104.314V1113.39H102.762V1117.44C102.762 1118.08 103.018 1118.32 103.642 1118.32H104.282V1120H102.794ZM105.806 1110.93V1108.75H108.27V1110.93H105.806ZM105.87 1120V1112H108.222V1120H105.87ZM110.417 1120V1112H112.769V1113.14C113.281 1112.24 114.081 1111.81 115.217 1111.81C116.929 1111.81 117.793 1112.77 117.793 1114.77V1120H115.441V1114.77C115.441 1113.81 115.057 1113.34 114.273 1113.34C113.329 1113.34 112.769 1113.94 112.769 1115.17V1120H110.417ZM127.421 1115.89C127.421 1116.02 127.405 1116.16 127.389 1116.35H121.949C122.045 1118.05 122.733 1118.69 123.613 1118.69C124.301 1118.69 124.813 1118.27 125.021 1117.26L127.213 1117.82C126.669 1119.33 125.389 1120.19 123.565 1120.19C121.117 1120.19 119.485 1118.56 119.485 1116C119.485 1113.44 121.133 1111.81 123.565 1111.81C125.965 1111.81 127.421 1113.36 127.421 1115.89ZM123.565 1113.25C122.781 1113.25 122.125 1113.76 121.965 1115.23H124.989C124.909 1113.74 124.317 1113.25 123.565 1113.25ZM134.613 1120L131.557 1108.96H134.021L135.909 1116.8L136.069 1117.47H136.133L136.293 1116.8L138.613 1108.96H140.165L142.437 1116.8L142.597 1117.47H142.661L142.821 1116.8L144.741 1108.96H146.933L143.893 1120H141.157L139.381 1113.57L139.237 1112.9H139.173L139.029 1113.57L137.333 1120H134.613ZM151.487 1120.19C149.023 1120.19 147.391 1118.56 147.391 1116C147.391 1113.44 149.023 1111.81 151.487 1111.81C153.951 1111.81 155.583 1113.44 155.583 1116C155.583 1118.56 153.951 1120.19 151.487 1120.19ZM151.487 1118.69C152.399 1118.69 153.135 1117.94 153.135 1116C153.135 1114.06 152.399 1113.31 151.487 1113.31C150.575 1113.31 149.839 1114.06 149.839 1116C149.839 1117.94 150.575 1118.69 151.487 1118.69ZM157.37 1120V1112H159.722V1113.25C160.186 1112.29 160.762 1111.9 161.946 1111.9H162.218V1113.89H161.21C160.218 1113.89 159.722 1114.37 159.722 1115.52V1120H157.37ZM168.631 1120L166.807 1116.72L165.783 1117.9V1120H163.463V1108.48H165.783V1115.38L168.599 1112H170.935L168.327 1114.99L171.143 1120H168.631ZM172.276 1120V1112H174.628V1113.14C175.14 1112.24 175.924 1111.81 176.98 1111.81C178.132 1111.81 178.9 1112.27 179.236 1113.23C179.892 1112.18 180.82 1111.81 181.812 1111.81C183.476 1111.81 184.292 1112.72 184.292 1114.75V1120H181.94V1114.67C181.94 1113.74 181.556 1113.34 180.884 1113.34C180.004 1113.34 179.46 1113.9 179.46 1115.07V1120H177.108V1114.67C177.108 1113.74 176.724 1113.34 176.052 1113.34C175.172 1113.34 174.628 1113.9 174.628 1115.07V1120H172.276ZM188.401 1120.19C186.865 1120.19 185.937 1119.34 185.937 1117.98C185.937 1116.56 186.737 1116.1 188.545 1115.57L189.825 1115.22C190.577 1114.99 190.849 1114.74 190.849 1114.14C190.849 1113.52 190.545 1113.15 189.825 1113.15C188.897 1113.15 188.465 1113.66 188.433 1114.8L186.161 1114.59C186.353 1112.74 187.585 1111.81 189.825 1111.81C192.225 1111.81 193.201 1112.75 193.201 1114.85V1118.19C193.201 1118.5 193.313 1118.62 193.569 1118.62H193.905V1120.08H192.769C191.649 1120.08 191.057 1119.78 190.993 1118.67L190.977 1118.4C190.529 1119.65 189.697 1120.19 188.401 1120.19ZM189.313 1118.72C190.145 1118.72 190.849 1117.98 190.849 1116.78V1115.84C190.657 1115.97 190.385 1116.06 190.065 1116.18L189.649 1116.3C188.673 1116.61 188.305 1117.02 188.305 1117.68C188.305 1118.34 188.689 1118.72 189.313 1118.72ZM195.448 1120V1112H197.8V1113.14C198.312 1112.24 199.112 1111.81 200.248 1111.81C201.96 1111.81 202.824 1112.77 202.824 1114.77V1120H200.472V1114.77C200.472 1113.81 200.088 1113.34 199.304 1113.34C198.36 1113.34 197.8 1113.94 197.8 1115.17V1120H195.448Z" fill="#1C1D1F"/>
<path d="M44 50V45.4546H32.9231V50H44Z" fill="#52B0FF"/>
<path d="M32.0029 41.0706L35.8574 40.3435C35.9271 42.2986 36.5495 43.2307 37.8661 43.2307C38.9971 43.2307 39.5283 42.7076 39.5283 41.2069V29.9995H43.5448V40.2748C43.5448 44.2991 41.86 45.9583 37.7738 45.9583C33.6877 45.9583 32.3259 43.5266 32.0029 41.0706Z" fill="#1C1D1F"/>
<path d="M64.24 46.192C61.472 46.192 60.576 44.576 60.368 42.768L62.688 42.304C62.752 43.84 63.264 44.512 64.288 44.512C65.232 44.512 65.68 44.064 65.68 42.768V34.96H68.112V42.256C68.112 45.024 66.944 46.192 64.24 46.192ZM72.9121 46.192C71.2001 46.192 70.3361 45.264 70.3361 43.312V38H72.6881V43.312C72.6881 44.224 73.0721 44.656 73.8561 44.656C74.8161 44.656 75.3601 44.08 75.3601 42.832V38H77.7121V46H75.3601V44.864C74.8481 45.776 74.0801 46.192 72.9121 46.192ZM79.9165 46V38H82.2685V39.248C82.7325 38.288 83.3085 37.904 84.4925 37.904H84.7645V39.888H83.7565C82.7645 39.888 82.2685 40.368 82.2685 41.52V46H79.9165ZM87.9321 46.192C86.3961 46.192 85.4681 45.344 85.4681 43.984C85.4681 42.56 86.2681 42.096 88.0761 41.568L89.3561 41.216C90.1081 40.992 90.3801 40.736 90.3801 40.144C90.3801 39.52 90.0761 39.152 89.3561 39.152C88.4281 39.152 87.9961 39.664 87.9641 40.8L85.6921 40.592C85.8841 38.736 87.1161 37.808 89.3561 37.808C91.7561 37.808 92.7321 38.752 92.7321 40.848V44.192C92.7321 44.496 92.8441 44.624 93.1001 44.624H93.4361V46.08H92.3001C91.1801 46.08 90.5881 45.776 90.5241 44.672L90.5081 44.4C90.0601 45.648 89.2281 46.192 87.9321 46.192ZM88.8441 44.72C89.6761 44.72 90.3801 43.984 90.3801 42.784V41.84C90.1881 41.968 89.9161 42.064 89.5961 42.176L89.1801 42.304C88.2041 42.608 87.8361 43.024 87.8361 43.68C87.8361 44.336 88.2201 44.72 88.8441 44.72ZM98.0373 46.192C96.1173 46.192 95.0293 45.504 94.2933 44.304L96.0373 43.424C96.4213 44.272 97.2053 44.8 98.0373 44.8C98.8373 44.8 99.2373 44.464 99.2373 43.952C99.2373 43.408 98.9173 43.12 97.9413 42.928L96.9333 42.72C95.3973 42.4 94.5813 41.616 94.5813 40.352C94.5813 38.736 95.9093 37.824 97.8453 37.824C99.3973 37.824 100.565 38.336 101.253 39.584L99.5733 40.448C99.1573 39.504 98.5653 39.2 97.8932 39.2C97.1093 39.2 96.7573 39.536 96.7573 40.064C96.7573 40.544 97.1253 40.816 97.9733 40.976L99.0133 41.184C100.677 41.504 101.493 42.208 101.493 43.6C101.493 44.992 100.485 46.192 98.0373 46.192ZM106.194 46.192C104.274 46.192 103.186 45.504 102.45 44.304L104.194 43.424C104.578 44.272 105.362 44.8 106.194 44.8C106.994 44.8 107.394 44.464 107.394 43.952C107.394 43.408 107.074 43.12 106.098 42.928L105.09 42.72C103.554 42.4 102.738 41.616 102.738 40.352C102.738 38.736 104.066 37.824 106.002 37.824C107.554 37.824 108.722 38.336 109.41 39.584L107.73 40.448C107.314 39.504 106.722 39.2 106.049 39.2C105.266 39.2 104.914 39.536 104.914 40.064C104.914 40.544 105.282 40.816 106.13 40.976L107.17 41.184C108.834 41.504 109.65 42.208 109.65 43.6C109.65 44.992 108.642 46.192 106.194 46.192ZM111.134 36.928V34.752H113.598V36.928H111.134ZM111.198 46V38H113.55V46H111.198ZM119.409 46.192C116.961 46.192 115.329 44.56 115.329 42C115.329 39.44 116.961 37.808 119.409 37.808C121.329 37.808 122.593 38.752 123.073 40.512L120.913 41.056C120.737 39.856 120.209 39.312 119.409 39.312C118.513 39.312 117.777 40.064 117.777 42C117.777 43.936 118.513 44.688 119.409 44.688C120.209 44.688 120.737 44.112 120.913 42.928L123.073 43.488C122.593 45.232 121.329 46.192 119.409 46.192ZM127.859 46V34.96H132.787C135.219 34.96 136.643 36.16 136.643 38.336C136.643 40.496 135.219 41.712 132.787 41.712H130.275V46H127.859ZM130.275 40.128H132.195C133.491 40.128 134.227 39.536 134.227 38.336C134.227 37.136 133.491 36.544 132.195 36.544H130.275V40.128ZM139.729 46.192C138.193 46.192 137.265 45.344 137.265 43.984C137.265 42.56 138.065 42.096 139.873 41.568L141.153 41.216C141.905 40.992 142.177 40.736 142.177 40.144C142.177 39.52 141.873 39.152 141.153 39.152C140.225 39.152 139.793 39.664 139.761 40.8L137.489 40.592C137.681 38.736 138.913 37.808 141.153 37.808C143.553 37.808 144.529 38.752 144.529 40.848V44.192C144.529 44.496 144.641 44.624 144.897 44.624H145.233V46.08H144.097C142.977 46.08 142.385 45.776 142.321 44.672L142.305 44.4C141.857 45.648 141.025 46.192 139.729 46.192ZM140.641 44.72C141.473 44.72 142.177 43.984 142.177 42.784V41.84C141.985 41.968 141.713 42.064 141.393 42.176L140.977 42.304C140.001 42.608 139.633 43.024 139.633 43.68C139.633 44.336 140.017 44.72 140.641 44.72ZM146.776 46V38H149.128V39.248C149.592 38.288 150.168 37.904 151.352 37.904H151.624V39.888H150.616C149.624 39.888 149.128 40.368 149.128 41.52V46H146.776ZM158.038 46L156.214 42.72L155.19 43.904V46H152.87V34.48H155.19V41.376L158.006 38H160.342L157.734 40.992L160.55 46H158.038Z" fill="#1C1D1F"/>
<path d="M222.192 43.3078C222.25 43.3659 222.296 43.4348 222.328 43.5107C222.359 43.5865 222.375 43.6679 222.375 43.75C222.375 43.8321 222.359 43.9135 222.328 43.9893C222.296 44.0652 222.25 44.1341 222.192 44.1922L218.442 47.9422C218.384 48.0003 218.315 48.0464 218.239 48.0779C218.163 48.1093 218.082 48.1255 218 48.1255C217.918 48.1255 217.836 48.1093 217.761 48.0779C217.685 48.0464 217.616 48.0003 217.558 47.9422L213.808 44.1922C213.69 44.0749 213.625 43.9159 213.625 43.75C213.625 43.5842 213.69 43.4251 213.808 43.3078C213.925 43.1905 214.084 43.1247 214.25 43.1247C214.416 43.1247 214.575 43.1905 214.692 43.3078L218 46.6164L221.308 43.3078C221.366 43.2497 221.435 43.2036 221.511 43.1722C221.586 43.1407 221.668 43.1245 221.75 43.1245C221.832 43.1245 221.913 43.1407 221.989 43.1722C222.065 43.2036 222.134 43.2497 222.192 43.3078ZM214.692 36.6922L218 33.3836L221.308 36.6922C221.425 36.8095 221.584 36.8754 221.75 36.8754C221.916 36.8754 222.075 36.8095 222.192 36.6922C222.309 36.5749 222.375 36.4159 222.375 36.25C222.375 36.0842 222.309 35.9251 222.192 35.8078L218.442 32.0578C218.384 31.9997 218.315 31.9536 218.239 31.9222C218.163 31.8907 218.082 31.8745 218 31.8745C217.918 31.8745 217.836 31.8907 217.761 31.9222C217.685 31.9536 217.616 31.9997 217.558 32.0578L213.808 35.8078C213.69 35.9251 213.625 36.0842 213.625 36.25C213.625 36.4159 213.69 36.5749 213.808 36.6922C213.925 36.8095 214.084 36.8754 214.25 36.8754C214.416 36.8754 214.575 36.8095 214.692 36.6922Z" fill="#848890"/>
<defs>
<clipPath id="clip0_4707_25647">
<rect width="256" height="940" fill="white" transform="translate(0 80)"/>
</clipPath>
<clipPath id="clip1_4707_25647">
<rect width="20" height="20" fill="white" transform="translate(28 93)"/>
</clipPath>
<clipPath id="clip2_4707_25647">
<path d="M28 1114C28 1105.16 35.1634 1098 44 1098C52.8366 1098 60 1105.16 60 1114C60 1122.84 52.8366 1130 44 1130C35.1634 1130 28 1122.84 28 1114Z" fill="white"/>
</clipPath>
</defs>
</svg>
