<svg width="32" height="32" viewBox="0 0 32 32" fill="none" xmlns="http://www.w3.org/2000/svg">
<g clip-path="url(#clip0_4710_25887)">
<g opacity="0.2">
<path opacity="0.2" d="M12.8 24.8002L7.19996 19.2002L4.73746 25.9877C4.66938 26.1658 4.65431 26.3598 4.69409 26.5463C4.73386 26.7328 4.82677 26.9037 4.9616 27.0386C5.09642 27.1734 5.2674 27.2663 5.45387 27.3061C5.64035 27.3458 5.83435 27.3308 6.01246 27.2627L12.8 24.8002Z" fill="#0070D4"/>
</g>
<path opacity="0.2" d="M9.6001 12.5998L19.4001 22.3998L24.5251 20.5373C24.6835 20.4798 24.8248 20.3831 24.9358 20.2563C25.0469 20.1295 25.1241 19.9767 25.1602 19.8121C25.1964 19.6474 25.1904 19.4763 25.1427 19.3147C25.095 19.153 25.0073 19.006 24.8876 18.8873L13.1126 7.11235C12.9939 6.99265 12.8469 6.9049 12.6853 6.85723C12.5236 6.80956 12.3525 6.80353 12.1879 6.8397C12.0233 6.87587 11.8704 6.95306 11.7436 7.0641C11.6168 7.17514 11.5202 7.31643 11.4626 7.47485L9.6001 12.5998Z" fill="#0070D4"/>
<path fill-rule="evenodd" clip-rule="evenodd" d="M18 1C18.5522 1 19 1.44772 19 2V5C19 5.55228 18.5522 6 18 6C17.4477 6 17 5.55228 17 5V2C17 1.44772 17.4477 1 18 1ZM27 2C27.5522 2 28 2.44772 28 3H27C28 3 28 3.0005 28 3.00101L27.9999 3.00448L27.9999 3.01011C27.9999 3.01272 27.9999 3.01563 27.9998 3.01884C27.9998 3.02071 27.9998 3.02267 27.9997 3.02473C27.9996 3.03595 27.9992 3.05011 27.9987 3.06701C27.9975 3.10077 27.9954 3.14568 27.9916 3.20015C27.9838 3.30877 27.9688 3.45741 27.9395 3.63315C27.8817 3.97989 27.7642 4.4575 27.5194 4.94721C27.2726 5.44084 26.8866 5.96489 26.289 6.3633C25.6852 6.76588 24.9249 7 24 7C23.4249 7 23.0602 7.14088 22.8203 7.3008C22.5741 7.46489 22.3976 7.69084 22.2694 7.94721C22.1392 8.2075 22.0692 8.47989 22.0332 8.69565C22.0156 8.80116 22.0072 8.88689 22.0033 8.94234C22.0013 8.96989 22.0005 8.98944 22.0001 8.99962C22 9.0031 22 9.00546 21.9999 9.00664C21.9964 9.55587 21.55 10 21 10C20.4477 10 20 9.55228 20 9H21C20 9 20 8.9995 20 8.99899L20 8.99552L20 8.98989C20 8.98749 20 8.98483 20.0001 8.98193C20.0001 8.97984 20.0001 8.97762 20.0002 8.97527C20.0004 8.96405 20.0007 8.94989 20.0012 8.93299C20.0024 8.89923 20.0045 8.85432 20.0084 8.79985C20.0161 8.69123 20.0311 8.54259 20.0604 8.36685C20.1182 8.02011 20.2357 7.5425 20.4805 7.05279C20.7273 6.55916 21.1133 6.03511 21.7109 5.6367C22.3148 5.23412 23.075 5 24 5C24.575 5 24.9398 4.85912 25.1796 4.6992C25.4258 4.53511 25.6023 4.30916 25.7305 4.05279C25.8607 3.7925 25.9307 3.52011 25.9667 3.30435C25.9843 3.19884 25.9927 3.11311 25.9966 3.05766C25.9986 3.03011 25.9994 3.01056 25.9998 3.00038C25.9999 2.9969 26 2.99454 26 2.99336C26.0036 2.44413 26.4499 2 27 2ZM11.9732 5.86315C12.3024 5.79081 12.6446 5.80287 12.9679 5.89821C13.2904 5.99329 13.5838 6.16815 13.8208 6.4066C13.8214 6.40722 13.822 6.40783 13.8226 6.40844L25.5915 18.1774C25.592 18.1779 25.5925 18.1784 25.593 18.1789C25.8317 18.416 26.0066 18.7094 26.1017 19.032C26.1971 19.3554 26.2091 19.6975 26.1368 20.0268C26.0645 20.356 25.9101 20.6617 25.688 20.9153C25.4659 21.1689 25.1833 21.3622 24.8665 21.4774L19.7825 23.3242C19.7557 23.3353 19.7285 23.3452 19.701 23.3538L13.2162 25.7095C13.1673 25.7319 13.1169 25.7501 13.0657 25.7642L6.36022 28.2001C6.00431 28.3341 5.61735 28.3632 5.24527 28.2839C4.86996 28.2038 4.52584 28.0168 4.25449 27.7455C3.98313 27.4741 3.79614 27.13 3.71609 26.7547C3.63672 26.3826 3.66584 25.9956 3.79989 25.6396L6.23572 18.9343C6.2498 18.883 6.26803 18.8327 6.29042 18.7837L8.64615 12.2989C8.65479 12.2714 8.66465 12.2443 8.67572 12.2175L10.5226 7.13356C10.6377 6.81674 10.8311 6.53403 11.0847 6.31195C11.3383 6.08986 11.6439 5.93548 11.9732 5.86315ZM10.0041 14.4184L8.35957 18.9454L13.0546 23.6404L17.5816 21.9959L10.0041 14.4184ZM19.6563 21.2422L10.7578 12.3436L12.4023 7.81656L12.4054 7.81961L24.1804 19.5946L24.1834 19.5976L19.6563 21.2422ZM12.4021 7.81635L12.4023 7.81656L12.4021 7.81635ZM10.9798 24.3941L7.60588 21.0201L5.68098 26.319L10.9798 24.3941ZM30.9486 8.68377C31.1233 9.20772 30.8401 9.77404 30.3162 9.94868L27.3162 10.9487C26.7922 11.1233 26.2259 10.8402 26.0513 10.3162C25.8766 9.79228 26.1598 9.22596 26.6837 9.05132L29.6837 8.05132C30.2077 7.87667 30.774 8.15983 30.9486 8.68377ZM26.2929 14.7071C25.9023 14.3166 25.9023 13.6834 26.2929 13.2929C26.6834 12.9024 27.3165 12.9024 27.7071 13.2929L29.7071 15.2929C30.0976 15.6834 30.0976 16.3166 29.7071 16.7071C29.3165 17.0976 28.6834 17.0976 28.2929 16.7071L26.2929 14.7071Z" fill="#0070D4"/>
</g>
<defs>
<clipPath id="clip0_4710_25887">
<rect width="32" height="32" fill="white"/>
</clipPath>
</defs>
</svg>
