<svg width="32" height="32" viewBox="0 0 32 32" fill="none" xmlns="http://www.w3.org/2000/svg">
<path opacity="0.2" d="M27.7075 11.2927L24 15.0002L17 8.00016L20.7075 4.29266C20.895 4.10527 21.1493 4 21.4144 4C21.6795 4 21.9337 4.10527 22.1213 4.29266L27.7075 9.87516C27.8009 9.96808 27.8749 10.0785 27.9255 10.2002C27.976 10.3218 28.002 10.4522 28.002 10.5839C28.002 10.7156 27.976 10.846 27.9255 10.9677C27.8749 11.0893 27.8009 11.1997 27.7075 11.2927Z" fill="#0070D4"/>
<path d="M28.415 9.17095L22.8288 3.58595C22.643 3.40018 22.4225 3.25282 22.1799 3.15228C21.9372 3.05175 21.6771 3 21.4144 3C21.1517 3 20.8916 3.05175 20.6489 3.15228C20.4062 3.25282 20.1857 3.40018 20 3.58595L4.58626 18.9997C4.39973 19.1847 4.25185 19.405 4.15121 19.6477C4.05057 19.8904 3.99917 20.1507 4.00001 20.4134V25.9997C4.00001 26.5301 4.21072 27.0388 4.5858 27.4139C4.96087 27.789 5.46958 27.9997 6.00001 27.9997H27C27.2652 27.9997 27.5196 27.8943 27.7071 27.7068C27.8947 27.5193 28 27.2649 28 26.9997C28 26.7345 27.8947 26.4801 27.7071 26.2926C27.5196 26.1051 27.2652 25.9997 27 25.9997H14.415L28.415 11.9997C28.6008 11.814 28.7481 11.5935 28.8487 11.3508C28.9492 11.1081 29.001 10.848 29.001 10.5853C29.001 10.3226 28.9492 10.0625 28.8487 9.81985C28.7481 9.57717 28.6008 9.35667 28.415 9.17095ZM6.00001 20.4134L17 9.41345L22.5863 14.9997L11.5863 25.9997H6.00001V20.4134ZM24 13.5859L18.415 7.9997L21.415 4.9997L27 10.5859L24 13.5859Z" fill="#0070D4"/>
</svg>
