<svg width="32" height="32" viewBox="0 0 32 32" fill="none" xmlns="http://www.w3.org/2000/svg">
<g clip-path="url(#clip0_4710_25845)">
<path opacity="0.2" d="M19 27V19H13V27H5.00001V14.4375C4.99928 14.2986 5.02785 14.1611 5.08385 14.0341C5.13985 13.907 5.22203 13.7931 5.32501 13.7L15.325 4.61247C15.5073 4.44469 15.746 4.35156 15.9938 4.35156C16.2415 4.35156 16.4802 4.44469 16.6625 4.61247L26.675 13.7C26.7756 13.795 26.8562 13.9092 26.9121 14.0359C26.9679 14.1625 26.9978 14.2991 27 14.4375V27H19Z" fill="#0070D4"/>
<path fill-rule="evenodd" clip-rule="evenodd" d="M14.6505 4.52262C15.0171 4.18651 15.4964 4 15.9938 4C16.4911 4 16.9702 4.18642 17.3367 4.52238L17.3397 4.52513L27.3471 13.6079C27.352 13.6124 27.3568 13.6169 27.3616 13.6214C27.5593 13.808 27.7175 14.0323 27.8271 14.2811C27.9368 14.5298 27.9955 14.7979 27.9999 15.0697C28 15.0751 28 15.0805 28 15.0859V27.6484C28 28.2007 27.5523 28.6484 27 28.6484C26.4477 28.6484 26 28.2007 26 27.6484V15.0995C25.9997 15.0954 25.9986 15.0914 25.997 15.0876C25.9954 15.084 25.9932 15.0806 25.9906 15.0777L15.9938 6.00442L6.00001 15.0862V27.6484C6.00001 28.2007 5.5523 28.6484 5.00001 28.6484C4.44773 28.6484 4.00001 28.2007 4.00001 27.6484V15.0881C3.99898 14.8096 4.05647 14.5341 4.16877 14.2792C4.28127 14.0239 4.44625 13.7952 4.65298 13.6079L4.65414 13.6068L14.6505 4.52262Z" fill="#0070D4"/>
<path fill-rule="evenodd" clip-rule="evenodd" d="M1 27.6484C1 27.0962 1.44772 26.6484 2 26.6484H30C30.5523 26.6484 31 27.0962 31 27.6484C31 28.2007 30.5523 28.6484 30 28.6484H2C1.44772 28.6484 1 28.2007 1 27.6484Z" fill="#0070D4"/>
<path fill-rule="evenodd" clip-rule="evenodd" d="M12.5858 19.2342C12.9609 18.8591 13.4696 18.6484 14 18.6484H18C18.5304 18.6484 19.0391 18.8591 19.4142 19.2342C19.7893 19.6093 20 20.118 20 20.6484V27.6484C20 28.2007 19.5523 28.6484 19 28.6484C18.4477 28.6484 18 28.2007 18 27.6484V20.6484H14V27.6484C14 28.2007 13.5523 28.6484 13 28.6484C12.4477 28.6484 12 28.2007 12 27.6484V20.6484C12 20.118 12.2107 19.6093 12.5858 19.2342Z" fill="#0070D4"/>
</g>
<defs>
<clipPath id="clip0_4710_25845">
<rect width="32" height="32" fill="white"/>
</clipPath>
</defs>
</svg>
