<svg width="32" height="32" viewBox="0 0 32 32" fill="none" xmlns="http://www.w3.org/2000/svg">
<g clip-path="url(#clip0_4710_25833)">
<path opacity="0.2" d="M18 27V5C18 4.73478 17.8946 4.48043 17.7071 4.29289C17.5196 4.10536 17.2652 4 17 4H5C4.73478 4 4.48043 4.10536 4.29289 4.29289C4.10536 4.48043 4 4.73478 4 5V27" fill="#0070D4"/>
<path fill-rule="evenodd" clip-rule="evenodd" d="M3.58579 3.58579C3.96086 3.21071 4.46957 3 5 3H17C17.5304 3 18.0391 3.21071 18.4142 3.58579C18.7893 3.96086 19 4.46957 19 5V11H27C27.5304 11 28.0391 11.2107 28.4142 11.5858C28.7893 11.9609 29 12.4696 29 13V26H30C30.5523 26 31 26.4477 31 27C31 27.5523 30.5523 28 30 28H2C1.44772 28 1 27.5523 1 27C1 26.4477 1.44772 26 2 26H3V5C3 4.46957 3.21071 3.96086 3.58579 3.58579ZM5 26H17L17 5H5L5 26ZM19 13V26H27V13H19ZM7 9C7 8.44772 7.44772 8 8 8H12C12.5523 8 13 8.44772 13 9C13 9.55229 12.5523 10 12 10H8C7.44772 10 7 9.55229 7 9ZM9 17C9 16.4477 9.44772 16 10 16H14C14.5523 16 15 16.4477 15 17C15 17.5523 14.5523 18 14 18H10C9.44772 18 9 17.5523 9 17ZM21 17C21 16.4477 21.4477 16 22 16H24C24.5523 16 25 16.4477 25 17C25 17.5523 24.5523 18 24 18H22C21.4477 18 21 17.5523 21 17ZM7 22C7 21.4477 7.44772 21 8 21H12C12.5523 21 13 21.4477 13 22C13 22.5523 12.5523 23 12 23H8C7.44772 23 7 22.5523 7 22ZM21 22C21 21.4477 21.4477 21 22 21H24C24.5523 21 25 21.4477 25 22C25 22.5523 24.5523 23 24 23H22C21.4477 23 21 22.5523 21 22Z" fill="#0070D4"/>
</g>
<defs>
<clipPath id="clip0_4710_25833">
<rect width="32" height="32" fill="white"/>
</clipPath>
</defs>
</svg>
