<svg width="256" height="1136" viewBox="0 0 256 1136" fill="none" xmlns="http://www.w3.org/2000/svg">
<g clip-path="url(#clip0_4809_11214)">
<g clip-path="url(#clip1_4809_11214)">
<path d="M45.0992 21.1087C45.3508 21.3379 45.5 21.6754 45.5 22.0262V29.2496H46.75C46.9158 29.2496 47.0747 29.3154 47.1919 29.4326C47.3092 29.5498 47.375 29.7088 47.375 29.8746C47.375 30.0403 47.3092 30.1993 47.1919 30.3165C47.0747 30.4337 46.9158 30.4996 46.75 30.4996H29.25C29.0842 30.4996 28.9253 30.4337 28.8081 30.3165C28.6908 30.1993 28.625 30.0403 28.625 29.8746C28.625 29.7088 28.6908 29.5498 28.8081 29.4326C28.9253 29.3154 29.0842 29.2496 29.25 29.2496H30.5V22.0262C30.5001 21.8525 30.5362 21.6807 30.6063 21.5218C30.6763 21.3628 30.7786 21.2202 30.9067 21.1029L37.1492 15.207C37.3787 14.9937 37.6801 14.8744 37.9935 14.8731C38.3069 14.8717 38.6094 14.9882 38.8408 15.1995L45.0992 21.1087ZM37.9908 16.117L31.7575 22.0179L31.7508 29.2496H35.5V25.4996C35.5 24.8104 36.0608 24.2496 36.75 24.2496H39.25C39.9392 24.2496 40.5 24.8104 40.5 25.4996V29.2496H44.25V22.0262L37.9908 16.117ZM36.75 29.2496H39.25V25.4996H36.75V29.2496Z" fill="#848890"/>
</g>
<path d="M61.472 29V17.96H62.816V22.76H68.736V17.96H70.08V29H68.736V23.752H62.816V29H61.472ZM76.3309 29.192C74.0269 29.192 72.4749 27.56 72.4749 25C72.4749 22.44 74.0269 20.808 76.3309 20.808C78.6349 20.808 80.1869 22.44 80.1869 25C80.1869 27.56 78.6349 29.192 76.3309 29.192ZM76.3309 28.36C77.7389 28.36 78.8109 27.288 78.8109 25C78.8109 22.712 77.7389 21.64 76.3309 21.64C74.9229 21.64 73.8509 22.712 73.8509 25C73.8509 27.288 74.9229 28.36 76.3309 28.36ZM82.5174 29V21H83.7974V22.12C84.3894 21.304 85.2214 20.808 86.3734 20.808C87.4934 20.808 88.3094 21.288 88.6774 22.232C89.3334 21.16 90.3734 20.808 91.4454 20.808C92.9814 20.808 93.9414 21.688 93.9414 23.448V29H92.6614V23.608C92.6614 22.296 92.1174 21.72 91.0454 21.72C89.7494 21.72 88.8694 22.6 88.8694 24.088V29H87.5894V23.608C87.5894 22.296 87.0454 21.72 85.9734 21.72C84.6774 21.72 83.7974 22.6 83.7974 24.088V29H82.5174ZM103.586 24.84C103.586 24.984 103.586 25.016 103.57 25.192H97.554C97.618 27.352 98.658 28.36 100.002 28.36C101.074 28.36 101.858 27.832 102.29 26.44L103.49 26.808C102.93 28.344 101.65 29.192 100.002 29.192C97.73 29.192 96.178 27.56 96.178 25C96.178 22.44 97.73 20.808 100.002 20.808C102.258 20.808 103.586 22.312 103.586 24.84ZM100.002 21.64C98.738 21.64 97.746 22.536 97.57 24.44H102.21C102.082 22.504 101.25 21.64 100.002 21.64Z" fill="#1C1D1F"/>
<path d="M208 17C208 14.7909 209.791 13 212 13H224C226.209 13 228 14.7909 228 17V29C228 31.2091 226.209 33 224 33H212C209.791 33 208 31.2091 208 29V17Z" fill="#0075DE"/>
<path d="M217.504 27.5V21.188C217.096 21.608 216.532 21.8 215.8 21.8V20.48C216.856 20.48 217.552 20.12 217.888 19.22H219.316V27.5H217.504Z" fill="white"/>
<path d="M37.1601 75.3374C37.9978 74.7798 38.6338 73.9674 38.974 73.0203C39.3142 72.0732 39.3406 71.0418 39.0493 70.0786C38.758 69.1154 38.1644 68.2715 37.3564 67.6717C36.5484 67.0719 35.5688 66.748 34.5625 66.748C33.5562 66.748 32.5766 67.0719 31.7685 67.6717C30.9605 68.2715 30.367 69.1154 30.0757 70.0786C29.7844 71.0418 29.8108 72.0732 30.151 73.0203C30.4912 73.9674 31.1272 74.7798 31.9648 75.3374C30.4496 75.8959 29.1555 76.9293 28.2758 78.2835C28.2295 78.3523 28.1974 78.4295 28.1813 78.5107C28.1651 78.592 28.1653 78.6756 28.1818 78.7568C28.1983 78.838 28.2307 78.915 28.2773 78.9836C28.3238 79.0521 28.3835 79.1107 28.4529 79.1559C28.5222 79.2012 28.5999 79.2322 28.6814 79.2472C28.7629 79.2621 28.8465 79.2607 28.9274 79.2431C29.0083 79.2255 29.085 79.1919 29.1528 79.1444C29.2207 79.0969 29.2784 79.0364 29.3226 78.9664C29.8901 78.0935 30.6667 77.3763 31.5817 76.8798C32.4968 76.3833 33.5214 76.1232 34.5625 76.1232C35.6036 76.1232 36.6282 76.3833 37.5432 76.8798C38.4583 77.3763 39.2348 78.0935 39.8023 78.9664C39.894 79.1026 40.0356 79.1973 40.1965 79.23C40.3575 79.2626 40.5248 79.2307 40.6623 79.1409C40.7999 79.0512 40.8966 78.911 40.9315 78.7506C40.9665 78.5901 40.9369 78.4224 40.8492 78.2835C39.9694 76.9293 38.6754 75.8959 37.1601 75.3374ZM31.125 71.4374C31.125 70.7576 31.3266 70.093 31.7043 69.5277C32.082 68.9624 32.6189 68.5218 33.247 68.2616C33.8751 68.0014 34.5663 67.9334 35.2331 68.066C35.8999 68.1986 36.5124 68.526 36.9932 69.0068C37.4739 69.4875 37.8013 70.1 37.9339 70.7668C38.0666 71.4336 37.9985 72.1248 37.7383 72.7529C37.4781 73.381 37.0375 73.9179 36.4723 74.2956C35.907 74.6733 35.2424 74.8749 34.5625 74.8749C33.6511 74.8739 32.7774 74.5114 32.1329 73.867C31.4885 73.2226 31.126 72.3488 31.125 71.4374ZM47.5422 79.1484C47.4033 79.2389 47.2342 79.2706 47.072 79.2365C46.9099 79.2023 46.7679 79.1052 46.6773 78.9664C46.1105 78.093 45.3341 77.3755 44.4188 76.8791C43.5036 76.3828 42.4786 76.1236 41.4375 76.1249C41.2717 76.1249 41.1127 76.0591 40.9955 75.9419C40.8783 75.8247 40.8125 75.6657 40.8125 75.4999C40.8125 75.3342 40.8783 75.1752 40.9955 75.058C41.1127 74.9408 41.2717 74.8749 41.4375 74.8749C41.9437 74.8745 42.4436 74.7622 42.9014 74.5461C43.3592 74.3301 43.7636 74.0156 44.0858 73.6251C44.4079 73.2346 44.6399 72.7778 44.765 72.2873C44.8902 71.7968 44.9055 71.2847 44.8097 70.7876C44.714 70.2905 44.5097 69.8206 44.2114 69.4117C43.9131 69.0027 43.5281 68.6646 43.084 68.4217C42.6399 68.1787 42.1476 68.0369 41.6423 68.0063C41.137 67.9756 40.6311 68.057 40.1609 68.2445C40.0842 68.2776 40.0017 68.2951 39.9182 68.2958C39.8347 68.2965 39.7519 68.2804 39.6746 68.2486C39.5974 68.2167 39.5274 68.1698 39.4686 68.1104C39.4099 68.051 39.3636 67.9805 39.3326 67.9029C39.3016 67.8254 39.2864 67.7424 39.288 67.6589C39.2896 67.5754 39.3079 67.493 39.3419 67.4167C39.3758 67.3404 39.4248 67.2717 39.4857 67.2146C39.5467 67.1575 39.6185 67.1132 39.6969 67.0843C40.773 66.6551 41.9699 66.6397 43.0568 67.041C44.1437 67.4422 45.0434 68.2318 45.5825 69.2573C46.1215 70.2828 46.2617 71.4716 45.976 72.5944C45.6903 73.7172 44.9988 74.6944 44.0351 75.3374C45.5504 75.8959 46.8444 76.9293 47.7242 78.2835C47.8147 78.4224 47.8464 78.5915 47.8123 78.7537C47.7781 78.9158 47.681 79.0578 47.5422 79.1484Z" fill="#848890"/>
<path d="M61.472 79V67.96H65.952C68.176 67.96 69.408 69.112 69.408 71.096C69.408 73.016 68.176 74.232 65.952 74.232H62.816V79H61.472ZM62.816 73.272H65.536C67.232 73.272 68.032 72.552 68.032 71.096C68.032 69.64 67.232 68.92 65.536 68.92H62.816V73.272ZM77.8673 74.84C77.8673 74.984 77.8673 75.016 77.8513 75.192H71.8353C71.8993 77.352 72.9393 78.36 74.2833 78.36C75.3553 78.36 76.1393 77.832 76.5713 76.44L77.7713 76.808C77.2113 78.344 75.9313 79.192 74.2833 79.192C72.0113 79.192 70.4593 77.56 70.4593 75C70.4593 72.44 72.0113 70.808 74.2833 70.808C76.5393 70.808 77.8673 72.312 77.8673 74.84ZM74.2833 71.64C73.0193 71.64 72.0273 72.536 71.8513 74.44H76.4913C76.3633 72.504 75.5313 71.64 74.2833 71.64ZM83.4871 79.192C81.1831 79.192 79.6311 77.56 79.6311 75C79.6311 72.44 81.1831 70.808 83.4871 70.808C85.7911 70.808 87.3431 72.44 87.3431 75C87.3431 77.56 85.7911 79.192 83.4871 79.192ZM83.4871 78.36C84.8951 78.36 85.9671 77.288 85.9671 75C85.9671 72.712 84.8951 71.64 83.4871 71.64C82.0791 71.64 81.0071 72.712 81.0071 75C81.0071 77.288 82.0791 78.36 83.4871 78.36ZM89.6736 82.52V71H90.9536V72.2C91.5136 71.384 92.4256 70.808 93.6096 70.808C95.7696 70.808 97.1936 72.44 97.1936 75C97.1936 77.56 95.7696 79.192 93.6096 79.192C92.5696 79.192 91.5936 78.808 90.9536 77.944V82.52H89.6736ZM93.4496 78.36C94.7616 78.36 95.8176 77.288 95.8176 75C95.8176 72.712 94.7616 71.64 93.4496 71.64C92.0416 71.64 90.8896 72.792 90.8896 75C90.8896 77.208 92.0416 78.36 93.4496 78.36ZM99.533 79V67.48H100.813V79H99.533ZM110.555 74.84C110.555 74.984 110.555 75.016 110.539 75.192H104.523C104.587 77.352 105.627 78.36 106.971 78.36C108.043 78.36 108.827 77.832 109.259 76.44L110.459 76.808C109.899 78.344 108.619 79.192 106.971 79.192C104.699 79.192 103.147 77.56 103.147 75C103.147 72.44 104.699 70.808 106.971 70.808C109.227 70.808 110.555 72.312 110.555 74.84ZM106.971 71.64C105.707 71.64 104.715 72.536 104.539 74.44H109.179C109.051 72.504 108.219 71.64 106.971 71.64Z" fill="#1C1D1F"/>
<path d="M42.375 114.875C42.375 114.709 42.3092 114.55 42.1919 114.433C42.0747 114.316 41.9158 114.25 41.75 114.25C41.5842 114.25 41.4253 114.316 41.3081 114.433C41.1908 114.55 41.125 114.709 41.125 114.875V115.5H34.875V114.875C34.875 114.709 34.8092 114.55 34.6919 114.433C34.5747 114.316 34.4158 114.25 34.25 114.25C34.0842 114.25 33.9253 114.316 33.8081 114.433C33.6908 114.55 33.625 114.709 33.625 114.875V115.5H31.75C31.4185 115.5 31.1005 115.632 30.8661 115.866C30.6317 116.101 30.5 116.418 30.5 116.75V129.25C30.5 129.582 30.6317 129.899 30.8661 130.134C31.1005 130.368 31.4185 130.5 31.75 130.5H44.25C44.5815 130.5 44.8995 130.368 45.1339 130.134C45.3683 129.899 45.5 129.582 45.5 129.25V116.75C45.5 116.418 45.3683 116.101 45.1339 115.866C44.8995 115.632 44.5815 115.5 44.25 115.5H42.375V114.875ZM34.25 118C34.4158 118 34.5747 117.934 34.6919 117.817C34.8092 117.7 34.875 117.541 34.875 117.375V116.75H41.125V117.375C41.125 117.541 41.1908 117.7 41.3081 117.817C41.4253 117.934 41.5842 118 41.75 118C41.9158 118 42.0747 117.934 42.1919 117.817C42.3092 117.7 42.375 117.541 42.375 117.375V116.75H44.25V119.25H31.75V116.75H33.625V117.375C33.625 117.72 33.905 118 34.25 118ZM31.75 120.5H44.25V129.25H31.75V120.5Z" fill="#848890"/>
<path d="M66.384 129.192C63.248 129.192 60.864 127.064 60.864 123.48C60.864 119.896 63.248 117.768 66.384 117.768C68.784 117.768 70.72 119.128 71.392 121.496L70.016 121.912C69.568 119.816 68.224 118.728 66.384 118.728C64.016 118.728 62.304 120.392 62.304 123.48C62.304 126.568 64.016 128.232 66.384 128.232C68.224 128.232 69.568 127.144 70.016 125.048L71.392 125.464C70.72 127.832 68.784 129.192 66.384 129.192ZM75.3745 129.192C73.7905 129.192 72.8625 128.344 72.8625 127.064C72.8625 125.72 73.7905 125.24 75.5665 124.68L76.6385 124.344C77.7905 123.976 78.1265 123.768 78.1265 123.064C78.1265 122.168 77.6785 121.64 76.4785 121.64C75.1345 121.64 74.4785 122.248 74.4305 123.672L73.1505 123.48C73.3265 121.672 74.5585 120.808 76.4785 120.808C78.5745 120.808 79.3905 121.672 79.3905 123.448V127.688C79.3905 128.104 79.5185 128.2 79.8065 128.2H80.2385V129.08H79.5345C78.6385 129.08 78.1905 128.632 78.1905 127.736V127.304C77.6785 128.584 76.5745 129.192 75.3745 129.192ZM75.6625 128.36C77.1985 128.36 78.1265 127.032 78.1265 125.464V124.472C77.9185 124.664 77.5025 124.808 76.8145 125.032L75.9185 125.32C74.7185 125.704 74.1585 126.088 74.1585 126.984C74.1585 127.784 74.6225 128.36 75.6625 128.36ZM82.2518 129V117.48H83.5318V129H82.2518ZM93.2735 124.84C93.2735 124.984 93.2735 125.016 93.2575 125.192H87.2415C87.3055 127.352 88.3455 128.36 89.6895 128.36C90.7615 128.36 91.5455 127.832 91.9775 126.44L93.1775 126.808C92.6175 128.344 91.3375 129.192 89.6895 129.192C87.4175 129.192 85.8655 127.56 85.8655 125C85.8655 122.44 87.4175 120.808 89.6895 120.808C91.9455 120.808 93.2735 122.312 93.2735 124.84ZM89.6895 121.64C88.4255 121.64 87.4335 122.536 87.2575 124.44H91.8975C91.7695 122.504 90.9375 121.64 89.6895 121.64ZM95.5174 129V121H96.7974V122.12C97.3894 121.304 98.2854 120.808 99.4374 120.808C101.133 120.808 102.093 121.768 102.093 123.528V129H100.813V123.688C100.813 122.456 100.349 121.72 99.0374 121.72C97.7574 121.72 96.7974 122.6 96.7974 124.168V129H95.5174ZM107.918 129.192C105.758 129.192 104.334 127.56 104.334 125C104.334 122.44 105.758 120.808 107.918 120.808C109.054 120.808 109.966 121.256 110.574 122.104V117.48H111.854V129H110.606V127.8C110.078 128.648 109.102 129.192 107.918 129.192ZM108.078 128.36C109.486 128.36 110.638 127.208 110.638 125C110.638 122.792 109.486 121.64 108.078 121.64C106.766 121.64 105.71 122.712 105.71 125C105.71 127.288 106.766 128.36 108.078 128.36ZM116.578 129.192C114.994 129.192 114.066 128.344 114.066 127.064C114.066 125.72 114.994 125.24 116.77 124.68L117.842 124.344C118.994 123.976 119.33 123.768 119.33 123.064C119.33 122.168 118.882 121.64 117.682 121.64C116.338 121.64 115.682 122.248 115.634 123.672L114.354 123.48C114.53 121.672 115.762 120.808 117.682 120.808C119.778 120.808 120.594 121.672 120.594 123.448V127.688C120.594 128.104 120.722 128.2 121.01 128.2H121.442V129.08H120.738C119.842 129.08 119.394 128.632 119.394 127.736V127.304C118.882 128.584 117.778 129.192 116.578 129.192ZM116.866 128.36C118.402 128.36 119.33 127.032 119.33 125.464V124.472C119.122 124.664 118.706 124.808 118.018 125.032L117.122 125.32C115.922 125.704 115.362 126.088 115.362 126.984C115.362 127.784 115.826 128.36 116.866 128.36ZM123.455 129V121H124.735V122.312C125.183 121.224 125.919 120.904 127.039 120.904H127.375V122.024H126.639C125.407 122.024 124.735 122.616 124.735 123.992V129H123.455Z" fill="#1C1D1F"/>
<path d="M12 154C12 151.791 13.7909 150 16 150H240C242.209 150 244 151.791 244 154V192C244 194.209 242.209 196 240 196H16C13.7909 196 12 194.209 12 192V154Z" fill="#EEF0F4"/>
<path opacity="0.2" d="M45.5 171.125V178C45.5 178.166 45.4342 178.325 45.3169 178.442C45.1997 178.559 45.0408 178.625 44.875 178.625H41.125V171.125H45.5Z" fill="#1C1D1F"/>
<path d="M30.1875 173C30.0217 173 29.8628 172.934 29.7456 172.817C29.6283 172.7 29.5625 172.541 29.5625 172.375C29.5625 172.209 29.6283 172.05 29.7456 171.933C29.8628 171.816 30.0217 171.75 30.1875 171.75H32.375C32.5408 171.75 32.6997 171.684 32.8169 171.567C32.9342 171.45 33 171.291 33 171.125C33 170.959 32.9342 170.8 32.8169 170.683C32.6997 170.566 32.5408 170.5 32.375 170.5H31.125C30.6277 170.5 30.1508 170.302 29.7992 169.951C29.4475 169.599 29.25 169.122 29.25 168.625C29.25 168.128 29.4475 167.651 29.7992 167.299C30.1508 166.948 30.6277 166.75 31.125 166.75C31.125 166.584 31.1908 166.425 31.3081 166.308C31.4253 166.191 31.5842 166.125 31.75 166.125C31.9158 166.125 32.0747 166.191 32.1919 166.308C32.3092 166.425 32.375 166.584 32.375 166.75H33C33.1658 166.75 33.3247 166.816 33.4419 166.933C33.5592 167.05 33.625 167.209 33.625 167.375C33.625 167.541 33.5592 167.7 33.4419 167.817C33.3247 167.934 33.1658 168 33 168H31.125C30.9592 168 30.8003 168.066 30.6831 168.183C30.5658 168.3 30.5 168.459 30.5 168.625C30.5 168.791 30.5658 168.95 30.6831 169.067C30.8003 169.184 30.9592 169.25 31.125 169.25H32.375C32.8723 169.25 33.3492 169.448 33.7008 169.799C34.0525 170.151 34.25 170.628 34.25 171.125C34.25 171.622 34.0525 172.099 33.7008 172.451C33.3492 172.802 32.8723 173 32.375 173C32.375 173.166 32.3092 173.325 32.1919 173.442C32.0747 173.559 31.9158 173.625 31.75 173.625C31.5842 173.625 31.4253 173.559 31.3081 173.442C31.1908 173.325 31.125 173.166 31.125 173H30.1875ZM46.125 167.375V178C46.125 178.332 45.9933 178.649 45.7589 178.884C45.5245 179.118 45.2065 179.25 44.875 179.25H31.125C30.7935 179.25 30.4755 179.118 30.2411 178.884C30.0067 178.649 29.875 178.332 29.875 178V174.875C29.875 174.709 29.9408 174.55 30.0581 174.433C30.1753 174.316 30.3342 174.25 30.5 174.25C30.6658 174.25 30.8247 174.316 30.9419 174.433C31.0592 174.55 31.125 174.709 31.125 174.875V178H40.5V175.5H34.25C34.0842 175.5 33.9253 175.434 33.8081 175.317C33.6908 175.2 33.625 175.041 33.625 174.875C33.625 174.709 33.6908 174.55 33.8081 174.433C33.9253 174.316 34.0842 174.25 34.25 174.25H40.5V171.75H36.125C35.9592 171.75 35.8003 171.684 35.6831 171.567C35.5658 171.45 35.5 171.291 35.5 171.125C35.5 170.959 35.5658 170.8 35.6831 170.683C35.8003 170.566 35.9592 170.5 36.125 170.5H44.875V168H35.5C35.3342 168 35.1753 167.934 35.0581 167.817C34.9408 167.7 34.875 167.541 34.875 167.375C34.875 167.209 34.9408 167.05 35.0581 166.933C35.1753 166.816 35.3342 166.75 35.5 166.75H45.5C45.6658 166.75 45.8247 166.816 45.9419 166.933C46.0592 167.05 46.125 167.209 46.125 167.375ZM41.75 174.25H44.875V171.75H41.75V174.25ZM44.875 178V175.5H41.75V178H44.875Z" fill="#0075DE"/>
<path d="M61.312 179V167.96H66.24C68.672 167.96 70.096 169.16 70.096 171.336C70.096 173.496 68.672 174.712 66.24 174.712H63.728V179H61.312ZM63.728 173.128H65.648C66.944 173.128 67.68 172.536 67.68 171.336C67.68 170.136 66.944 169.544 65.648 169.544H63.728V173.128ZM73.1821 179.192C71.6461 179.192 70.7181 178.344 70.7181 176.984C70.7181 175.56 71.5181 175.096 73.3261 174.568L74.6061 174.216C75.3581 173.992 75.6301 173.736 75.6301 173.144C75.6301 172.52 75.3261 172.152 74.6061 172.152C73.6781 172.152 73.2461 172.664 73.2141 173.8L70.9421 173.592C71.1341 171.736 72.3661 170.808 74.6061 170.808C77.0061 170.808 77.9821 171.752 77.9821 173.848V177.192C77.9821 177.496 78.0941 177.624 78.3501 177.624H78.6861V179.08H77.5501C76.4301 179.08 75.8381 178.776 75.7741 177.672L75.7581 177.4C75.3101 178.648 74.4781 179.192 73.1821 179.192ZM74.0941 177.72C74.9261 177.72 75.6301 176.984 75.6301 175.784V174.84C75.4381 174.968 75.1661 175.064 74.8461 175.176L74.4301 175.304C73.4541 175.608 73.0861 176.024 73.0861 176.68C73.0861 177.336 73.4701 177.72 74.0941 177.72ZM79.7714 182.52V180.84H80.6514C81.4034 180.84 81.7234 180.6 81.9634 179.912L82.1874 179.256L78.9554 171H81.4354L83.0834 176.136L83.2114 176.888H83.2754L85.0034 171H87.1154L83.7714 180.456C83.1954 182.088 82.4914 182.52 80.8594 182.52H79.7714Z" fill="#0075DE"/>
<path d="M38.4419 218.183C38.5592 218.3 38.625 218.459 38.625 218.625V222.375H42.375C42.5408 222.375 42.6997 222.441 42.8169 222.558C42.9342 222.675 43 222.834 43 223C43 223.166 42.9342 223.325 42.8169 223.442C42.6997 223.559 42.5408 223.625 42.375 223.625H38C37.655 223.625 37.375 223.345 37.375 223V218.625C37.375 218.459 37.4408 218.3 37.5581 218.183C37.6753 218.066 37.8342 218 38 218C38.1658 218 38.3247 218.066 38.4419 218.183Z" fill="#848890"/>
<path fill-rule="evenodd" clip-rule="evenodd" d="M29.875 223C29.875 218.512 33.5125 214.875 38 214.875C42.4875 214.875 46.125 218.512 46.125 223C46.125 227.487 42.4875 231.125 38 231.125C33.5125 231.125 29.875 227.487 29.875 223ZM33.1386 218.139C31.8493 219.428 31.125 221.177 31.125 223C31.125 224.823 31.8493 226.572 33.1386 227.861C34.428 229.151 36.1766 229.875 38 229.875C39.8234 229.875 41.572 229.151 42.8614 227.861C44.1507 226.572 44.875 224.823 44.875 223C44.875 221.177 44.1507 219.428 42.8614 218.139C41.572 216.849 39.8234 216.125 38 216.125C36.1766 216.125 34.428 216.849 33.1386 218.139Z" fill="#848890"/>
<path d="M64.112 229V218.984H60.384V217.96H69.184V218.984H65.456V229H64.112ZM70.8745 219.496V217.96H72.3465V219.496H70.8745ZM70.9705 229V221H72.2505V229H70.9705ZM75.0643 229V221H76.3443V222.12C76.9363 221.304 77.7682 220.808 78.9203 220.808C80.0403 220.808 80.8563 221.288 81.2243 222.232C81.8802 221.16 82.9203 220.808 83.9923 220.808C85.5283 220.808 86.4883 221.688 86.4883 223.448V229H85.2083V223.608C85.2083 222.296 84.6643 221.72 83.5923 221.72C82.2963 221.72 81.4163 222.6 81.4163 224.088V229H80.1363V223.608C80.1363 222.296 79.5923 221.72 78.5203 221.72C77.2243 221.72 76.3443 222.6 76.3443 224.088V229H75.0643ZM96.1329 224.84C96.1329 224.984 96.1329 225.016 96.1169 225.192H90.1009C90.1649 227.352 91.2049 228.36 92.5489 228.36C93.6209 228.36 94.4049 227.832 94.8369 226.44L96.0369 226.808C95.4769 228.344 94.1969 229.192 92.5489 229.192C90.2769 229.192 88.7249 227.56 88.7249 225C88.7249 222.44 90.2769 220.808 92.5489 220.808C94.8049 220.808 96.1329 222.312 96.1329 224.84ZM92.5489 221.64C91.2849 221.64 90.2929 222.536 90.1169 224.44H94.7569C94.6289 222.504 93.7969 221.64 92.5489 221.64ZM101.721 229.192C99.4488 229.192 97.8968 227.56 97.8968 225C97.8968 222.44 99.4488 220.808 101.721 220.808C103.577 220.808 104.841 221.816 105.241 223.432L104.009 223.8C103.753 222.36 102.857 221.64 101.721 221.64C100.345 221.64 99.2728 222.712 99.2728 225C99.2728 227.288 100.345 228.36 101.721 228.36C102.857 228.36 103.753 227.64 104.009 226.2L105.241 226.568C104.841 228.184 103.577 229.192 101.721 229.192ZM109.125 229.192C107.541 229.192 106.613 228.344 106.613 227.064C106.613 225.72 107.541 225.24 109.317 224.68L110.389 224.344C111.541 223.976 111.877 223.768 111.877 223.064C111.877 222.168 111.429 221.64 110.229 221.64C108.885 221.64 108.229 222.248 108.181 223.672L106.901 223.48C107.077 221.672 108.309 220.808 110.229 220.808C112.325 220.808 113.141 221.672 113.141 223.448V227.688C113.141 228.104 113.269 228.2 113.557 228.2H113.989V229.08H113.285C112.389 229.08 111.941 228.632 111.941 227.736V227.304C111.429 228.584 110.325 229.192 109.125 229.192ZM109.413 228.36C110.949 228.36 111.877 227.032 111.877 225.464V224.472C111.669 224.664 111.253 224.808 110.565 225.032L109.669 225.32C108.469 225.704 107.909 226.088 107.909 226.984C107.909 227.784 108.373 228.36 109.413 228.36ZM116.002 229V221H117.282V222.312C117.73 221.224 118.466 220.904 119.586 220.904H119.922V222.024H119.186C117.954 222.024 117.282 222.616 117.282 223.992V229H116.002ZM124.528 229.192C122.368 229.192 120.944 227.56 120.944 225C120.944 222.44 122.368 220.808 124.528 220.808C125.664 220.808 126.576 221.256 127.184 222.104V217.48H128.464V229H127.216V227.8C126.688 228.648 125.712 229.192 124.528 229.192ZM124.688 228.36C126.096 228.36 127.248 227.208 127.248 225C127.248 222.792 126.096 221.64 124.688 221.64C123.376 221.64 122.32 222.712 122.32 225C122.32 227.288 123.376 228.36 124.688 228.36ZM133.987 229.192C132.035 229.192 131.059 228.312 130.483 227.192L131.635 226.584C132.019 227.656 132.851 228.392 133.987 228.392C135.219 228.392 135.795 227.88 135.795 227.016C135.795 226.2 135.459 225.768 134.147 225.512L133.251 225.336C131.603 225.016 130.787 224.36 130.787 223.144C130.787 221.624 132.131 220.824 133.763 220.824C135.283 220.824 136.403 221.464 137.011 222.648L135.891 223.24C135.459 222.056 134.611 221.624 133.731 221.624C132.611 221.624 132.035 222.104 132.035 222.952C132.035 223.608 132.483 224.04 133.699 224.28L134.611 224.456C136.275 224.776 137.139 225.432 137.139 226.84C137.139 228.168 136.099 229.192 133.987 229.192Z" fill="#1C1D1F"/>
<path d="M41.9067 265.5C40.2942 265.5 38.8808 266.194 38 267.367C37.1192 266.194 35.7067 265.5 34.0942 265.5C32.81 265.502 31.5789 266.012 30.6708 266.92C29.7627 267.828 29.2518 269.059 29.25 270.343C29.25 275.81 37.3583 280.24 37.7042 280.425C37.7952 280.474 37.8968 280.499 38 280.499C38.1032 280.499 38.2048 280.474 38.2958 280.425C38.6417 280.239 46.75 275.81 46.75 270.343C46.7485 269.059 46.2377 267.828 45.3297 266.92C44.4217 266.012 43.1907 265.502 41.9067 265.5ZM38 279.157C36.5742 278.326 30.5 274.538 30.5 270.343C30.5013 269.391 30.8804 268.477 31.5542 267.804C32.228 267.13 33.1414 266.751 34.0942 266.75C35.6133 266.75 36.8883 267.559 37.4217 268.862C37.6133 269.332 38.3858 269.332 38.5783 268.862C39.1117 267.559 40.3867 266.75 41.9067 266.75C42.8595 266.751 43.7729 267.13 44.4466 267.804C45.1203 268.478 45.4991 269.391 45.5 270.344C45.5 274.532 39.425 278.325 38 279.157Z" fill="#848890"/>
<path d="M61.472 279V267.96H66.4C68.576 267.96 69.76 269.016 69.76 270.712C69.76 272.056 68.96 272.84 68.032 273.208C69.216 273.608 70.16 274.536 70.16 276.008C70.16 277.848 68.896 279 66.624 279H61.472ZM62.816 272.84H66.128C67.568 272.84 68.384 272.04 68.384 270.84C68.384 269.496 67.568 268.92 66.128 268.92H62.816V272.84ZM62.816 278.04H66.288C67.904 278.04 68.752 277.352 68.752 275.864C68.752 274.536 67.904 273.768 66.288 273.768H62.816V278.04ZM79.3985 274.84C79.3985 274.984 79.3985 275.016 79.3825 275.192H73.3665C73.4305 277.352 74.4705 278.36 75.8145 278.36C76.8865 278.36 77.6705 277.832 78.1025 276.44L79.3025 276.808C78.7425 278.344 77.4625 279.192 75.8145 279.192C73.5425 279.192 71.9905 277.56 71.9905 275C71.9905 272.44 73.5425 270.808 75.8145 270.808C78.0705 270.808 79.3985 272.312 79.3985 274.84ZM75.8145 271.64C74.5505 271.64 73.5585 272.536 73.3825 274.44H78.0225C77.8945 272.504 77.0625 271.64 75.8145 271.64ZM81.6424 279V271H82.9224V272.12C83.5144 271.304 84.4104 270.808 85.5624 270.808C87.2584 270.808 88.2184 271.768 88.2184 273.528V279H86.9384V273.688C86.9384 272.456 86.4744 271.72 85.1624 271.72C83.8824 271.72 82.9224 272.6 82.9224 274.168V279H81.6424ZM97.8673 274.84C97.8673 274.984 97.8673 275.016 97.8513 275.192H91.8353C91.8993 277.352 92.9393 278.36 94.2833 278.36C95.3553 278.36 96.1393 277.832 96.5713 276.44L97.7713 276.808C97.2113 278.344 95.9313 279.192 94.2833 279.192C92.0113 279.192 90.4593 277.56 90.4593 275C90.4593 272.44 92.0113 270.808 94.2833 270.808C96.5393 270.808 97.8673 272.312 97.8673 274.84ZM94.2833 271.64C93.0193 271.64 92.0273 272.536 91.8513 274.44H96.4913C96.3633 272.504 95.5313 271.64 94.2833 271.64ZM100.481 279V271.8H99.0574V271H100.481V269.688C100.481 268.04 101.025 267.48 102.641 267.48H103.585V268.44H102.689C101.985 268.44 101.761 268.664 101.761 269.528V271H103.585V271.8H101.761V279H100.481ZM105.217 269.496V267.96H106.689V269.496H105.217ZM105.313 279V271H106.593V279H105.313ZM111.552 279C110.256 279 109.712 278.456 109.712 277.144V271.8H108.384V271H109.712V268.904H110.992V271H112.608V271.8H110.992V277.208C110.992 277.8 111.296 278.04 111.824 278.04H112.48V279H111.552ZM117.299 279.192C115.348 279.192 114.372 278.312 113.796 277.192L114.948 276.584C115.332 277.656 116.164 278.392 117.299 278.392C118.532 278.392 119.108 277.88 119.108 277.016C119.108 276.2 118.772 275.768 117.46 275.512L116.564 275.336C114.916 275.016 114.1 274.36 114.1 273.144C114.1 271.624 115.444 270.824 117.076 270.824C118.596 270.824 119.716 271.464 120.324 272.648L119.204 273.24C118.772 272.056 117.924 271.624 117.044 271.624C115.924 271.624 115.348 272.104 115.348 272.952C115.348 273.608 115.796 274.04 117.012 274.28L117.924 274.456C119.588 274.776 120.452 275.432 120.452 276.84C120.452 278.168 119.412 279.192 117.299 279.192Z" fill="#1C1D1F"/>
<path d="M39.875 315.5C39.7092 315.5 39.5503 315.566 39.4331 315.683C39.3158 315.8 39.25 315.959 39.25 316.125V319.25H35.5C35.3342 319.25 35.1753 319.316 35.0581 319.433C34.9408 319.55 34.875 319.709 34.875 319.875V323H31.75C31.5842 323 31.4253 323.066 31.3081 323.183C31.1908 323.3 31.125 323.459 31.125 323.625V328.625H30.5C30.3342 328.625 30.1753 328.691 30.0581 328.808C29.9408 328.925 29.875 329.084 29.875 329.25C29.875 329.416 29.9408 329.575 30.0581 329.692C30.1753 329.809 30.3342 329.875 30.5 329.875H45.5C45.6658 329.875 45.8247 329.809 45.9419 329.692C46.0592 329.575 46.125 329.416 46.125 329.25C46.125 329.084 46.0592 328.925 45.9419 328.808C45.8247 328.691 45.6658 328.625 45.5 328.625H44.875V316.125C44.875 315.959 44.8092 315.8 44.6919 315.683C44.5747 315.566 44.4158 315.5 44.25 315.5H39.875ZM43.625 328.625H40.5V316.75H43.625V328.625ZM39.25 328.625H36.125V320.5H39.25V328.625ZM32.375 324.25H34.875V328.625H32.375V324.25Z" fill="#848890"/>
<path d="M69.664 320.824C69.664 322.328 68.736 323.448 66.944 323.656L69.616 329H68.16L65.504 323.688H62.832V329H61.472V317.96H66.384C68.512 317.96 69.664 319.032 69.664 320.824ZM62.832 318.92V322.728H66.096C67.568 322.728 68.288 322.104 68.288 320.824C68.288 319.544 67.568 318.92 66.096 318.92H62.832ZM78.6485 324.84C78.6485 324.984 78.6485 325.016 78.6325 325.192H72.6165C72.6805 327.352 73.7205 328.36 75.0645 328.36C76.1365 328.36 76.9205 327.832 77.3525 326.44L78.5525 326.808C77.9925 328.344 76.7125 329.192 75.0645 329.192C72.7925 329.192 71.2405 327.56 71.2405 325C71.2405 322.44 72.7925 320.808 75.0645 320.808C77.3205 320.808 78.6485 322.312 78.6485 324.84ZM75.0645 321.64C73.8005 321.64 72.8085 322.536 72.6325 324.44H77.2725C77.1445 322.504 76.3125 321.64 75.0645 321.64ZM80.8924 332.52V321H82.1724V322.2C82.7324 321.384 83.6444 320.808 84.8284 320.808C86.9884 320.808 88.4124 322.44 88.4124 325C88.4124 327.56 86.9884 329.192 84.8284 329.192C83.7884 329.192 82.8124 328.808 82.1724 327.944V332.52H80.8924ZM84.6684 328.36C85.9804 328.36 87.0364 327.288 87.0364 325C87.0364 322.712 85.9804 321.64 84.6684 321.64C83.2604 321.64 82.1084 322.792 82.1084 325C82.1084 327.208 83.2604 328.36 84.6684 328.36ZM94.1278 329.192C91.8238 329.192 90.2718 327.56 90.2718 325C90.2718 322.44 91.8238 320.808 94.1278 320.808C96.4318 320.808 97.9838 322.44 97.9838 325C97.9838 327.56 96.4318 329.192 94.1278 329.192ZM94.1278 328.36C95.5358 328.36 96.6078 327.288 96.6078 325C96.6078 322.712 95.5358 321.64 94.1278 321.64C92.7198 321.64 91.6478 322.712 91.6478 325C91.6478 327.288 92.7198 328.36 94.1278 328.36ZM100.314 329V321H101.594V322.312C102.042 321.224 102.778 320.904 103.898 320.904H104.234V322.024H103.498C102.266 322.024 101.594 322.616 101.594 323.992V329H100.314ZM108.068 329C106.772 329 106.228 328.456 106.228 327.144V321.8H104.9V321H106.228V318.904H107.508V321H109.124V321.8H107.508V327.208C107.508 327.8 107.812 328.04 108.34 328.04H108.996V329H108.068ZM113.815 329.192C111.863 329.192 110.887 328.312 110.311 327.192L111.463 326.584C111.847 327.656 112.679 328.392 113.815 328.392C115.047 328.392 115.623 327.88 115.623 327.016C115.623 326.2 115.287 325.768 113.975 325.512L113.079 325.336C111.431 325.016 110.615 324.36 110.615 323.144C110.615 321.624 111.959 320.824 113.591 320.824C115.111 320.824 116.231 321.464 116.839 322.648L115.719 323.24C115.287 322.056 114.439 321.624 113.559 321.624C112.439 321.624 111.863 322.104 111.863 322.952C111.863 323.608 112.311 324.04 113.527 324.28L114.439 324.456C116.103 324.776 116.967 325.432 116.967 326.84C116.967 328.168 115.927 329.192 113.815 329.192Z" fill="#1C1D1F"/>
<path d="M44.6922 368.183L41.5672 365.058C41.5091 365 41.4402 364.954 41.3643 364.922C41.2884 364.891 41.2071 364.875 41.125 364.875H34.875C34.5435 364.875 34.2255 365.007 33.9911 365.241C33.7567 365.476 33.625 365.793 33.625 366.125V367.375H32.375C32.0435 367.375 31.7255 367.507 31.4911 367.741C31.2567 367.976 31.125 368.293 31.125 368.625V379.875C31.125 380.207 31.2567 380.524 31.4911 380.759C31.7255 380.993 32.0435 381.125 32.375 381.125H41.125C41.4565 381.125 41.7745 380.993 42.0089 380.759C42.2433 380.524 42.375 380.207 42.375 379.875V378.625H43.625C43.9565 378.625 44.2745 378.493 44.5089 378.259C44.7433 378.024 44.875 377.707 44.875 377.375V368.625C44.8751 368.543 44.859 368.462 44.8276 368.386C44.7962 368.31 44.7502 368.241 44.6922 368.183ZM41.125 379.875H32.375V368.625H38.3664L41.125 371.384V377.987C41.125 377.992 41.125 377.996 41.125 378C41.125 378.004 41.125 378.008 41.125 378.013V379.875ZM43.625 377.375H42.375V371.125C42.3751 371.043 42.359 370.962 42.3276 370.886C42.2962 370.81 42.2502 370.741 42.1922 370.683L39.0672 367.558C39.0091 367.5 38.9402 367.454 38.8643 367.422C38.7884 367.391 38.7071 367.375 38.625 367.375H34.875V366.125H40.8664L43.625 368.884V377.375ZM39.25 374.875C39.25 375.041 39.1842 375.2 39.0669 375.317C38.9497 375.434 38.7908 375.5 38.625 375.5H34.875C34.7092 375.5 34.5503 375.434 34.4331 375.317C34.3158 375.2 34.25 375.041 34.25 374.875C34.25 374.709 34.3158 374.55 34.4331 374.433C34.5503 374.316 34.7092 374.25 34.875 374.25H38.625C38.7908 374.25 38.9497 374.316 39.0669 374.433C39.1842 374.55 39.25 374.709 39.25 374.875ZM39.25 377.375C39.25 377.541 39.1842 377.7 39.0669 377.817C38.9497 377.934 38.7908 378 38.625 378H34.875C34.7092 378 34.5503 377.934 34.4331 377.817C34.3158 377.7 34.25 377.541 34.25 377.375C34.25 377.209 34.3158 377.05 34.4331 376.933C34.5503 376.816 34.7092 376.75 34.875 376.75H38.625C38.7908 376.75 38.9497 376.816 39.0669 376.933C39.1842 377.05 39.25 377.209 39.25 377.375Z" fill="#848890"/>
<path d="M61.472 379V367.96H65.648C68.72 367.96 71.04 370.072 71.04 373.48C71.04 376.872 68.72 379 65.648 379H61.472ZM62.816 378.04H65.36C67.952 378.04 69.6 376.424 69.6 373.48C69.6 370.536 67.952 368.92 65.36 368.92H62.816V378.04ZM76.6903 379.192C74.3863 379.192 72.8343 377.56 72.8343 375C72.8343 372.44 74.3863 370.808 76.6903 370.808C78.9943 370.808 80.5463 372.44 80.5463 375C80.5463 377.56 78.9943 379.192 76.6903 379.192ZM76.6903 378.36C78.0983 378.36 79.1703 377.288 79.1703 375C79.1703 372.712 78.0983 371.64 76.6903 371.64C75.2823 371.64 74.2103 372.712 74.2103 375C74.2103 377.288 75.2823 378.36 76.6903 378.36ZM86.2208 379.192C83.9488 379.192 82.3968 377.56 82.3968 375C82.3968 372.44 83.9488 370.808 86.2208 370.808C88.0768 370.808 89.3408 371.816 89.7408 373.432L88.5088 373.8C88.2528 372.36 87.3568 371.64 86.2208 371.64C84.8448 371.64 83.7728 372.712 83.7728 375C83.7728 377.288 84.8448 378.36 86.2208 378.36C87.3568 378.36 88.2528 377.64 88.5088 376.2L89.7408 376.568C89.3408 378.184 88.0768 379.192 86.2208 379.192ZM94.2805 379.192C92.5845 379.192 91.6245 378.28 91.6245 376.536V371H92.9045V376.376C92.9045 377.592 93.3685 378.28 94.6805 378.28C96.0405 378.28 96.9205 377.448 96.9205 375.832V371H98.2005V379H96.9205V377.88C96.3605 378.728 95.5605 379.192 94.2805 379.192ZM101.017 379V371H102.297V372.12C102.889 371.304 103.721 370.808 104.873 370.808C105.993 370.808 106.809 371.288 107.177 372.232C107.833 371.16 108.873 370.808 109.945 370.808C111.481 370.808 112.441 371.688 112.441 373.448V379H111.161V373.608C111.161 372.296 110.617 371.72 109.545 371.72C108.249 371.72 107.369 372.6 107.369 374.088V379H106.089V373.608C106.089 372.296 105.545 371.72 104.473 371.72C103.177 371.72 102.297 372.6 102.297 374.088V379H101.017ZM122.086 374.84C122.086 374.984 122.086 375.016 122.07 375.192H116.054C116.118 377.352 117.158 378.36 118.502 378.36C119.574 378.36 120.358 377.832 120.79 376.44L121.99 376.808C121.43 378.344 120.15 379.192 118.502 379.192C116.23 379.192 114.678 377.56 114.678 375C114.678 372.44 116.23 370.808 118.502 370.808C120.758 370.808 122.086 372.312 122.086 374.84ZM118.502 371.64C117.238 371.64 116.246 372.536 116.07 374.44H120.71C120.582 372.504 119.75 371.64 118.502 371.64ZM124.33 379V371H125.61V372.12C126.202 371.304 127.098 370.808 128.25 370.808C129.946 370.808 130.906 371.768 130.906 373.528V379H129.626V373.688C129.626 372.456 129.162 371.72 127.85 371.72C126.57 371.72 125.61 372.6 125.61 374.168V379H124.33ZM135.708 379C134.412 379 133.868 378.456 133.868 377.144V371.8H132.54V371H133.868V368.904H135.148V371H136.764V371.8H135.148V377.208C135.148 377.8 135.452 378.04 135.98 378.04H136.636V379H135.708ZM141.456 379.192C139.504 379.192 138.528 378.312 137.952 377.192L139.104 376.584C139.488 377.656 140.32 378.392 141.456 378.392C142.688 378.392 143.264 377.88 143.264 377.016C143.264 376.2 142.928 375.768 141.616 375.512L140.72 375.336C139.072 375.016 138.256 374.36 138.256 373.144C138.256 371.624 139.6 370.824 141.232 370.824C142.752 370.824 143.872 371.464 144.48 372.648L143.36 373.24C142.928 372.056 142.08 371.624 141.2 371.624C140.08 371.624 139.504 372.104 139.504 372.952C139.504 373.608 139.952 374.04 141.168 374.28L142.08 374.456C143.744 374.776 144.608 375.432 144.608 376.84C144.608 378.168 143.568 379.192 141.456 379.192Z" fill="#1C1D1F"/>
<path d="M46.0407 429.563C44.8508 427.506 43.0172 426.031 40.8774 425.331C41.9358 424.701 42.7582 423.741 43.2182 422.598C43.6781 421.456 43.7503 420.194 43.4235 419.006C43.0968 417.818 42.3892 416.771 41.4094 416.024C40.4296 415.277 39.2318 414.873 38 414.873C36.7682 414.873 35.5704 415.277 34.5907 416.024C33.6109 416.771 32.9033 417.818 32.5765 419.006C32.2498 420.194 32.3219 421.456 32.7819 422.598C33.2419 423.741 34.0642 424.701 35.1227 425.331C32.9828 426.03 31.1492 427.505 29.9594 429.563C29.9158 429.634 29.8868 429.713 29.8743 429.795C29.8617 429.878 29.8659 429.962 29.8864 430.043C29.9069 430.124 29.9434 430.2 29.9938 430.267C30.0441 430.333 30.1073 430.389 30.1796 430.431C30.2519 430.472 30.3318 430.499 30.4146 430.51C30.4974 430.52 30.5814 430.514 30.6618 430.491C30.7421 430.468 30.8171 430.43 30.8823 430.378C30.9475 430.326 31.0016 430.261 31.0414 430.188C32.5133 427.644 35.1149 426.125 38 426.125C40.8852 426.125 43.4867 427.644 44.9586 430.188C44.9984 430.261 45.0526 430.326 45.1178 430.378C45.183 430.43 45.258 430.468 45.3383 430.491C45.4186 430.514 45.5027 430.52 45.5855 430.51C45.6683 430.499 45.7482 430.472 45.8205 430.431C45.8927 430.389 45.9559 430.333 46.0063 430.267C46.0566 430.2 46.0932 430.124 46.1137 430.043C46.1342 429.962 46.1383 429.878 46.1258 429.795C46.1132 429.713 46.0843 429.634 46.0407 429.563ZM33.625 420.5C33.625 419.635 33.8816 418.789 34.3623 418.07C34.8431 417.35 35.5264 416.789 36.3258 416.458C37.1252 416.127 38.0049 416.04 38.8535 416.209C39.7022 416.378 40.4818 416.795 41.0936 417.407C41.7055 418.018 42.1222 418.798 42.291 419.647C42.4598 420.495 42.3731 421.375 42.042 422.174C41.7109 422.974 41.1501 423.657 40.4306 424.138C39.7112 424.619 38.8653 424.875 38 424.875C36.8401 424.874 35.728 424.413 34.9078 423.592C34.0876 422.772 33.6263 421.66 33.625 420.5Z" fill="#848890"/>
<path d="M64.112 429V425.624L60.16 417.96H61.696L64.688 424.008L64.896 424.584H64.96L65.168 424.008L68.032 417.96H69.392L65.456 425.688V429H64.112ZM73.2059 429.192C70.9019 429.192 69.3499 427.56 69.3499 425C69.3499 422.44 70.9019 420.808 73.2059 420.808C75.5099 420.808 77.0619 422.44 77.0619 425C77.0619 427.56 75.5099 429.192 73.2059 429.192ZM73.2059 428.36C74.6139 428.36 75.6859 427.288 75.6859 425C75.6859 422.712 74.6139 421.64 73.2059 421.64C71.7979 421.64 70.7259 422.712 70.7259 425C70.7259 427.288 71.7979 428.36 73.2059 428.36ZM81.9524 429.192C80.2564 429.192 79.2964 428.28 79.2964 426.536V421H80.5764V426.376C80.5764 427.592 81.0404 428.28 82.3524 428.28C83.7124 428.28 84.5924 427.448 84.5924 425.832V421H85.8724V429H84.5924V427.88C84.0324 428.728 83.2324 429.192 81.9524 429.192Z" fill="#1C1D1F"/>
<path d="M215.942 416.308C215.823 416.198 215.666 416.138 215.505 416.141C215.343 416.144 215.188 416.209 215.074 416.324C214.959 416.438 214.894 416.593 214.891 416.755C214.888 416.917 214.948 417.073 215.058 417.192L220.867 423L215.058 428.808C214.997 428.866 214.948 428.935 214.913 429.011C214.879 429.088 214.861 429.171 214.859 429.255C214.858 429.339 214.873 429.422 214.905 429.5C214.936 429.578 214.983 429.648 215.042 429.708C215.102 429.767 215.172 429.814 215.25 429.845C215.328 429.877 215.411 429.892 215.495 429.891C215.579 429.889 215.662 429.871 215.739 429.837C215.815 429.802 215.884 429.753 215.942 429.692L222.192 423.442C222.309 423.325 222.374 423.166 222.374 423C222.374 422.834 222.309 422.676 222.192 422.558L215.942 416.308Z" fill="#848890"/>
<path d="M38 469.25C37.2584 469.25 36.5333 469.47 35.9166 469.882C35.3 470.294 34.8193 470.88 34.5355 471.565C34.2517 472.25 34.1774 473.004 34.3221 473.732C34.4668 474.459 34.8239 475.127 35.3484 475.652C35.8728 476.176 36.541 476.534 37.2684 476.678C37.9959 476.823 38.7499 476.749 39.4351 476.465C40.1203 476.181 40.706 475.7 41.118 475.084C41.5301 474.467 41.75 473.742 41.75 473C41.749 472.006 41.3536 471.053 40.6505 470.35C39.9475 469.647 38.9943 469.251 38 469.25ZM38 475.5C37.5056 475.5 37.0222 475.354 36.6111 475.079C36.2 474.804 35.8796 474.414 35.6903 473.957C35.5011 473.5 35.4516 472.998 35.5481 472.513C35.6445 472.028 35.8826 471.582 36.2323 471.233C36.5819 470.883 37.0274 470.645 37.5123 470.548C37.9973 470.452 38.4999 470.501 38.9567 470.691C39.4136 470.88 39.804 471.2 40.0787 471.611C40.3534 472.022 40.5 472.506 40.5 473C40.5 473.663 40.2366 474.299 39.7678 474.768C39.299 475.237 38.6631 475.5 38 475.5ZM44.875 473.169C44.8782 473.057 44.8782 472.944 44.875 472.832L46.0407 471.375C46.1018 471.299 46.1441 471.209 46.1642 471.113C46.1843 471.017 46.1816 470.918 46.1563 470.824C45.9652 470.105 45.6794 469.416 45.3063 468.773C45.2574 468.689 45.1896 468.617 45.1082 468.564C45.0269 468.511 44.9342 468.477 44.8375 468.466L42.9844 468.26C42.9073 468.178 42.8292 468.1 42.75 468.025L42.5313 466.167C42.52 466.071 42.4863 465.978 42.4329 465.897C42.3795 465.815 42.3077 465.747 42.2235 465.699C41.5804 465.326 40.8908 465.041 40.1727 464.849C40.0781 464.824 39.9788 464.822 39.883 464.842C39.7872 464.862 39.6975 464.905 39.6211 464.966L38.1688 466.125C38.0563 466.125 37.9438 466.125 37.8313 466.125L36.375 464.962C36.2986 464.901 36.2088 464.859 36.113 464.838C36.0172 464.818 35.918 464.821 35.8235 464.846C35.1053 465.038 34.4157 465.324 33.7727 465.696C33.6886 465.745 33.617 465.813 33.5637 465.894C33.5104 465.976 33.4768 466.068 33.4657 466.165L33.2594 468.021C33.1782 468.099 33.1 468.177 33.025 468.256L31.1672 468.469C31.0705 468.48 30.9778 468.514 30.8964 468.567C30.815 468.621 30.7472 468.693 30.6985 468.777C30.3261 469.42 30.0405 470.11 29.8493 470.828C29.8241 470.922 29.8215 471.021 29.8417 471.117C29.862 471.213 29.9044 471.303 29.9657 471.379L31.125 472.832C31.125 472.944 31.125 473.057 31.125 473.169L29.9618 474.625C29.9006 474.702 29.8583 474.791 29.8382 474.887C29.8182 474.983 29.8209 475.082 29.8461 475.177C30.0372 475.895 30.3231 476.585 30.6961 477.228C30.745 477.312 30.8128 477.383 30.8942 477.437C30.9755 477.49 31.0682 477.523 31.1649 477.535L33.018 477.741C33.0956 477.822 33.1737 477.9 33.2524 477.975L33.4688 479.833C33.48 479.93 33.5137 480.023 33.5672 480.104C33.6206 480.185 33.6923 480.253 33.7766 480.302C34.4197 480.674 35.1093 480.96 35.8274 481.151C35.922 481.176 36.0212 481.179 36.117 481.159C36.2128 481.138 36.3026 481.096 36.3789 481.035L37.8313 479.875C37.9438 479.878 38.0563 479.878 38.1688 479.875L39.625 481.041C39.7015 481.102 39.7912 481.144 39.887 481.164C39.9828 481.184 40.082 481.182 40.1766 481.157C40.8949 480.965 41.5845 480.68 42.2274 480.307C42.3115 480.258 42.3831 480.19 42.4364 480.108C42.4897 480.027 42.5232 479.934 42.5344 479.838L42.7407 477.985C42.8219 477.908 42.9 477.829 42.975 477.75L44.8329 477.532C44.9296 477.52 45.0223 477.487 45.1037 477.433C45.1851 477.38 45.2528 477.308 45.3016 477.224C45.674 476.581 45.9595 475.891 46.1508 475.173C46.176 475.078 46.1786 474.979 46.1583 474.883C46.1381 474.787 46.0957 474.698 46.0344 474.621L44.875 473.169ZM43.6172 472.661C43.6305 472.887 43.6305 473.113 43.6172 473.339C43.6079 473.494 43.6564 473.647 43.7532 473.767L44.8618 475.153C44.7345 475.557 44.5717 475.949 44.375 476.324L42.6094 476.524C42.4557 476.542 42.3137 476.615 42.211 476.731C42.0606 476.9 41.9004 477.06 41.7313 477.21C41.6156 477.313 41.5421 477.455 41.525 477.609L41.3289 479.373C40.9536 479.57 40.5614 479.733 40.1571 479.86L38.7711 478.751C38.6602 478.662 38.5225 478.614 38.3805 478.614H38.343C38.1172 478.628 37.8907 478.628 37.6649 478.614C37.5103 478.605 37.3577 478.653 37.2368 478.75L35.8477 479.86C35.4434 479.732 35.0513 479.57 34.6758 479.373L34.4758 477.61C34.4587 477.456 34.3853 477.314 34.2696 477.211C34.1004 477.061 33.9403 476.901 33.7899 476.732C33.6872 476.616 33.5452 476.542 33.3914 476.525L31.6274 476.328C31.4307 475.953 31.2678 475.561 31.1407 475.157L32.2493 473.771C32.3461 473.65 32.3945 473.497 32.3852 473.342C32.3719 473.117 32.3719 472.89 32.3852 472.664C32.3945 472.51 32.3461 472.357 32.2493 472.236L31.1407 470.848C31.2679 470.444 31.4307 470.051 31.6274 469.676L33.3907 469.476C33.5444 469.459 33.6864 469.386 33.7891 469.27C33.9395 469.101 34.0997 468.941 34.2688 468.79C34.3849 468.687 34.4587 468.545 34.4758 468.391L34.6719 466.628C35.0473 466.431 35.4395 466.268 35.8438 466.141L37.2297 467.249C37.3507 467.346 37.5032 467.395 37.6578 467.385C37.8837 467.372 38.1101 467.372 38.336 467.385C38.4906 467.395 38.6432 467.346 38.7641 467.249L40.1524 466.141C40.5567 466.268 40.9488 466.431 41.3243 466.628L41.5243 468.391C41.5413 468.545 41.6148 468.687 41.7305 468.789C41.8996 468.94 42.0598 469.1 42.2102 469.269C42.3129 469.385 42.4549 469.458 42.6086 469.475L44.3727 469.671C44.5694 470.047 44.7323 470.439 44.8594 470.843L43.7508 472.229C43.6531 472.351 43.6046 472.505 43.6149 472.661H43.6172Z" fill="#848890"/>
<path d="M66.384 479.192C63.248 479.192 60.864 477.064 60.864 473.48C60.864 469.896 63.248 467.768 66.384 467.768C68.784 467.768 70.72 469.128 71.392 471.496L70.016 471.912C69.568 469.816 68.224 468.728 66.384 468.728C64.016 468.728 62.304 470.392 62.304 473.48C62.304 476.568 64.016 478.232 66.384 478.232C68.224 478.232 69.568 477.144 70.016 475.048L71.392 475.464C70.72 477.832 68.784 479.192 66.384 479.192ZM76.8465 479.192C74.5425 479.192 72.9905 477.56 72.9905 475C72.9905 472.44 74.5425 470.808 76.8465 470.808C79.1505 470.808 80.7025 472.44 80.7025 475C80.7025 477.56 79.1505 479.192 76.8465 479.192ZM76.8465 478.36C78.2545 478.36 79.3265 477.288 79.3265 475C79.3265 472.712 78.2545 471.64 76.8465 471.64C75.4385 471.64 74.3665 472.712 74.3665 475C74.3665 477.288 75.4385 478.36 76.8465 478.36ZM83.033 479V471H84.313V472.12C84.905 471.304 85.737 470.808 86.889 470.808C88.009 470.808 88.825 471.288 89.193 472.232C89.849 471.16 90.889 470.808 91.961 470.808C93.497 470.808 94.457 471.688 94.457 473.448V479H93.177V473.608C93.177 472.296 92.633 471.72 91.561 471.72C90.265 471.72 89.385 472.6 89.385 474.088V479H88.105V473.608C88.105 472.296 87.561 471.72 86.489 471.72C85.193 471.72 84.313 472.6 84.313 474.088V479H83.033ZM97.1736 482.52V471H98.4536V472.2C99.0136 471.384 99.9256 470.808 101.11 470.808C103.27 470.808 104.694 472.44 104.694 475C104.694 477.56 103.27 479.192 101.11 479.192C100.07 479.192 99.0936 478.808 98.4536 477.944V482.52H97.1736ZM100.95 478.36C102.262 478.36 103.318 477.288 103.318 475C103.318 472.712 102.262 471.64 100.95 471.64C99.5416 471.64 98.3896 472.792 98.3896 475C98.3896 477.208 99.5416 478.36 100.95 478.36ZM108.937 479.192C107.353 479.192 106.425 478.344 106.425 477.064C106.425 475.72 107.353 475.24 109.129 474.68L110.201 474.344C111.353 473.976 111.689 473.768 111.689 473.064C111.689 472.168 111.241 471.64 110.041 471.64C108.697 471.64 108.041 472.248 107.993 473.672L106.713 473.48C106.889 471.672 108.121 470.808 110.041 470.808C112.137 470.808 112.953 471.672 112.953 473.448V477.688C112.953 478.104 113.081 478.2 113.369 478.2H113.801V479.08H113.097C112.201 479.08 111.753 478.632 111.753 477.736V477.304C111.241 478.584 110.137 479.192 108.937 479.192ZM109.225 478.36C110.761 478.36 111.689 477.032 111.689 475.464V474.472C111.481 474.664 111.065 474.808 110.377 475.032L109.481 475.32C108.281 475.704 107.721 476.088 107.721 476.984C107.721 477.784 108.185 478.36 109.225 478.36ZM115.814 479V471H117.094V472.12C117.686 471.304 118.582 470.808 119.734 470.808C121.43 470.808 122.39 471.768 122.39 473.528V479H121.11V473.688C121.11 472.456 120.646 471.72 119.334 471.72C118.054 471.72 117.094 472.6 117.094 474.168V479H115.814ZM124.649 482.52V481.512H125.385C126.105 481.512 126.409 481.32 126.665 480.568L127.081 479.32L123.897 471H125.289L127.497 477.24L127.609 477.72H127.673L129.913 471H131.081L127.657 480.872C127.241 482.088 126.713 482.52 125.401 482.52H124.649ZM138.846 479.192C136.894 479.192 135.918 478.312 135.342 477.192L136.494 476.584C136.878 477.656 137.71 478.392 138.846 478.392C140.078 478.392 140.654 477.88 140.654 477.016C140.654 476.2 140.318 475.768 139.006 475.512L138.11 475.336C136.462 475.016 135.646 474.36 135.646 473.144C135.646 471.624 136.99 470.824 138.622 470.824C140.142 470.824 141.262 471.464 141.87 472.648L140.75 473.24C140.318 472.056 139.47 471.624 138.59 471.624C137.47 471.624 136.894 472.104 136.894 472.952C136.894 473.608 137.342 474.04 138.558 474.28L139.47 474.456C141.134 474.776 141.998 475.432 141.998 476.84C141.998 478.168 140.958 479.192 138.846 479.192ZM151.039 474.84C151.039 474.984 151.039 475.016 151.023 475.192H145.007C145.071 477.352 146.111 478.36 147.455 478.36C148.527 478.36 149.311 477.832 149.743 476.44L150.943 476.808C150.383 478.344 149.103 479.192 147.455 479.192C145.183 479.192 143.631 477.56 143.631 475C143.631 472.44 145.183 470.808 147.455 470.808C149.711 470.808 151.039 472.312 151.039 474.84ZM147.455 471.64C146.191 471.64 145.199 472.536 145.023 474.44H149.663C149.535 472.504 148.703 471.64 147.455 471.64ZM155.302 479C154.006 479 153.462 478.456 153.462 477.144V471.8H152.134V471H153.462V468.904H154.742V471H156.358V471.8H154.742V477.208C154.742 477.8 155.046 478.04 155.574 478.04H156.23V479H155.302ZM160.49 479C159.194 479 158.65 478.456 158.65 477.144V471.8H157.322V471H158.65V468.904H159.93V471H161.546V471.8H159.93V477.208C159.93 477.8 160.234 478.04 160.762 478.04H161.418V479H160.49ZM163.437 469.496V467.96H164.909V469.496H163.437ZM163.533 479V471H164.813V479H163.533ZM167.627 479V471H168.907V472.12C169.499 471.304 170.395 470.808 171.547 470.808C173.243 470.808 174.203 471.768 174.203 473.528V479H172.923V473.688C172.923 472.456 172.459 471.72 171.147 471.72C169.867 471.72 168.907 472.6 168.907 474.168V479H167.627ZM179.852 482.712C177.036 482.712 176.028 481.864 176.028 480.616C176.028 479.784 176.524 479.208 177.276 479C176.732 478.744 176.476 478.344 176.476 477.752C176.476 477.048 176.972 476.408 178.076 476.248C177.244 475.816 176.716 474.936 176.716 473.736C176.716 471.992 177.916 470.808 179.916 470.808C181.372 470.808 182.3 471.448 182.652 472.12C182.748 471.096 183.212 470.584 184.06 470.584H184.252V471.896H183.932C183.34 471.896 183.084 472.184 182.924 472.6C183.052 472.984 183.116 473.384 183.116 473.736C183.116 475.464 181.948 476.664 179.916 476.664H178.828C177.932 476.664 177.564 477 177.564 477.48C177.564 477.928 177.932 478.152 178.508 478.152H181.356C183.052 478.152 183.98 478.84 183.98 480.248C183.98 481.704 182.828 482.712 179.852 482.712ZM179.916 475.864C181.052 475.864 181.836 475.16 181.836 473.736C181.836 472.312 181.052 471.608 179.916 471.608C178.78 471.608 177.996 472.312 177.996 473.736C177.996 475.16 178.78 475.864 179.916 475.864ZM179.852 481.896C181.964 481.896 182.812 481.368 182.812 480.376C182.812 479.64 182.316 479.24 181.244 479.24H178.86C177.756 479.24 177.244 479.688 177.244 480.44C177.244 481.336 177.9 481.896 179.852 481.896ZM188.612 479.192C186.66 479.192 185.684 478.312 185.108 477.192L186.26 476.584C186.644 477.656 187.476 478.392 188.612 478.392C189.844 478.392 190.42 477.88 190.42 477.016C190.42 476.2 190.084 475.768 188.772 475.512L187.876 475.336C186.228 475.016 185.412 474.36 185.412 473.144C185.412 471.624 186.756 470.824 188.388 470.824C189.908 470.824 191.028 471.464 191.636 472.648L190.516 473.24C190.084 472.056 189.236 471.624 188.356 471.624C187.236 471.624 186.66 472.104 186.66 472.952C186.66 473.608 187.108 474.04 188.324 474.28L189.236 474.456C190.9 474.776 191.764 475.432 191.764 476.84C191.764 478.168 190.724 479.192 188.612 479.192Z" fill="#1C1D1F"/>
<path d="M215.942 466.308C215.823 466.198 215.666 466.138 215.505 466.141C215.343 466.144 215.188 466.209 215.074 466.324C214.959 466.438 214.894 466.593 214.891 466.755C214.888 466.917 214.948 467.073 215.058 467.192L220.867 473L215.058 478.808C214.997 478.866 214.948 478.935 214.913 479.011C214.879 479.088 214.861 479.171 214.859 479.255C214.858 479.339 214.873 479.422 214.905 479.5C214.936 479.578 214.983 479.648 215.042 479.708C215.102 479.767 215.172 479.814 215.25 479.845C215.328 479.877 215.411 479.892 215.495 479.891C215.579 479.889 215.662 479.871 215.739 479.837C215.815 479.802 215.884 479.753 215.942 479.692L222.192 473.442C222.309 473.325 222.374 473.166 222.374 473C222.374 472.834 222.309 472.676 222.192 472.558L215.942 466.308Z" fill="#848890"/>
<rect x="12" y="500" width="232" height="4" fill="#F7F8FB"/>
</g>
<defs>
<clipPath id="clip0_4809_11214">
<rect width="256" height="1136" fill="white"/>
</clipPath>
<clipPath id="clip1_4809_11214">
<rect width="20" height="20" fill="white" transform="translate(28 13)"/>
</clipPath>
</defs>
</svg>
