<svg width="256" height="138" viewBox="0 0 256 138" fill="none" xmlns="http://www.w3.org/2000/svg">
<path d="M38.9375 43.0625C38.9375 43.2479 38.8825 43.4292 38.7795 43.5833C38.6765 43.7375 38.5301 43.8577 38.3588 43.9286C38.1875 43.9996 37.999 44.0182 37.8171 43.982C37.6352 43.9458 37.4682 43.8565 37.3371 43.7254C37.206 43.5943 37.1167 43.4273 37.0805 43.2454C37.0443 43.0635 37.0629 42.875 37.1339 42.7037C37.2048 42.5324 37.325 42.386 37.4792 42.283C37.6333 42.18 37.8146 42.125 38 42.125C38.2486 42.125 38.4871 42.2238 38.6629 42.3996C38.8387 42.5754 38.9375 42.8139 38.9375 43.0625ZM38 34.625C36.2766 34.625 34.875 35.8867 34.875 37.4375V37.75C34.875 37.9158 34.9409 38.0747 35.0581 38.1919C35.1753 38.3092 35.3342 38.375 35.5 38.375C35.6658 38.375 35.8247 38.3092 35.9419 38.1919C36.0592 38.0747 36.125 37.9158 36.125 37.75V37.4375C36.125 36.5781 36.9664 35.875 38 35.875C39.0336 35.875 39.875 36.5781 39.875 37.4375C39.875 38.2969 39.0336 39 38 39C37.8342 39 37.6753 39.0658 37.5581 39.1831C37.4409 39.3003 37.375 39.4592 37.375 39.625V40.25C37.375 40.4158 37.4409 40.5747 37.5581 40.6919C37.6753 40.8092 37.8342 40.875 38 40.875C38.1658 40.875 38.3247 40.8092 38.4419 40.6919C38.5592 40.5747 38.625 40.4158 38.625 40.25V40.1938C40.05 39.932 41.125 38.7953 41.125 37.4375C41.125 35.8867 39.7234 34.625 38 34.625ZM46.125 39C46.125 40.607 45.6485 42.1779 44.7557 43.514C43.8629 44.8502 42.594 45.8916 41.1093 46.5065C39.6247 47.1215 37.991 47.2824 36.4149 46.9689C34.8388 46.6554 33.3911 45.8815 32.2548 44.7452C31.1185 43.6089 30.3446 42.1612 30.0311 40.5851C29.7176 39.009 29.8785 37.3753 30.4935 35.8907C31.1084 34.406 32.1498 33.1371 33.486 32.2443C34.8221 31.3515 36.393 30.875 38 30.875C40.1542 30.8773 42.2195 31.734 43.7427 33.2573C45.266 34.7805 46.1227 36.8458 46.125 39ZM44.875 39C44.875 37.6403 44.4718 36.311 43.7164 35.1805C42.9609 34.0499 41.8872 33.1687 40.631 32.6483C39.3747 32.128 37.9924 31.9918 36.6588 32.2571C35.3251 32.5224 34.1001 33.1772 33.1386 34.1386C32.1772 35.1001 31.5224 36.3251 31.2571 37.6588C30.9918 38.9924 31.128 40.3747 31.6483 41.6309C32.1687 42.8872 33.0499 43.9609 34.1805 44.7164C35.311 45.4718 36.6403 45.875 38 45.875C39.8227 45.8729 41.5702 45.1479 42.8591 43.8591C44.1479 42.5702 44.8729 40.8227 44.875 39Z" fill="#848890"/>
<path d="M61.472 45V33.96H62.816V38.76H68.736V33.96H70.08V45H68.736V39.752H62.816V45H61.472ZM79.8829 40.84C79.8829 40.984 79.8829 41.016 79.8669 41.192H73.8509C73.9149 43.352 74.9549 44.36 76.2989 44.36C77.3709 44.36 78.1549 43.832 78.5869 42.44L79.7869 42.808C79.2269 44.344 77.9469 45.192 76.2989 45.192C74.0269 45.192 72.4749 43.56 72.4749 41C72.4749 38.44 74.0269 36.808 76.2989 36.808C78.5549 36.808 79.8829 38.312 79.8829 40.84ZM76.2989 37.64C75.0349 37.64 74.0429 38.536 73.8669 40.44H78.5069C78.3789 38.504 77.5469 37.64 76.2989 37.64ZM82.1268 45V33.48H83.4068V45H82.1268ZM86.2205 48.52V37H87.5005V38.2C88.0605 37.384 88.9725 36.808 90.1565 36.808C92.3165 36.808 93.7405 38.44 93.7405 41C93.7405 43.56 92.3165 45.192 90.1565 45.192C89.1165 45.192 88.1405 44.808 87.5005 43.944V48.52H86.2205ZM89.9965 44.36C91.3085 44.36 92.3645 43.288 92.3645 41C92.3645 38.712 91.3085 37.64 89.9965 37.64C88.5885 37.64 87.4365 38.792 87.4365 41C87.4365 43.208 88.5885 44.36 89.9965 44.36Z" fill="#1C1D1F"/>
<g clip-path="url(#clip0_4809_11273)">
<circle cx="44" cy="94" r="16" fill="#C7E8FF"/>
<path d="M37.6292 99.144C35.5532 99.144 34.8812 97.932 34.7252 96.576L36.4652 96.228C36.5132 97.38 36.8972 97.884 37.6652 97.884C38.3732 97.884 38.7092 97.548 38.7092 96.576V90.72H40.5332V96.192C40.5332 98.268 39.6572 99.144 37.6292 99.144ZM44.0493 99L41.7573 90.72H43.6053L45.0213 96.6L45.1413 97.104H45.1893L45.3093 96.6L47.0493 90.72H48.2133L49.9173 96.6L50.0373 97.104H50.0853L50.2053 96.6L51.6453 90.72H53.2893L51.0093 99H48.9573L47.6253 94.176L47.5173 93.672H47.4693L47.3613 94.176L46.0893 99H44.0493Z" fill="#1C1D1F"/>
</g>
<path d="M76.24 100.192C73.472 100.192 72.576 98.576 72.368 96.768L74.688 96.304C74.752 97.84 75.264 98.512 76.288 98.512C77.232 98.512 77.68 98.064 77.68 96.768V88.96H80.112V96.256C80.112 99.024 78.944 100.192 76.24 100.192ZM84.9121 100.192C83.2001 100.192 82.3361 99.264 82.3361 97.312V92H84.6881V97.312C84.6881 98.224 85.0721 98.656 85.8561 98.656C86.8161 98.656 87.3601 98.08 87.3601 96.832V92H89.7121V100H87.3601V98.864C86.8481 99.776 86.0801 100.192 84.9121 100.192ZM95.0685 100.192C93.1485 100.192 92.0605 99.504 91.3245 98.304L93.0685 97.424C93.4525 98.272 94.2365 98.8 95.0685 98.8C95.8685 98.8 96.2685 98.464 96.2685 97.952C96.2685 97.408 95.9485 97.12 94.9725 96.928L93.9645 96.72C92.4285 96.4 91.6125 95.616 91.6125 94.352C91.6125 92.736 92.9405 91.824 94.8765 91.824C96.4285 91.824 97.5965 92.336 98.2845 93.584L96.6045 94.448C96.1885 93.504 95.5965 93.2 94.9245 93.2C94.1405 93.2 93.7885 93.536 93.7885 94.064C93.7885 94.544 94.1565 94.816 95.0045 94.976L96.0445 95.184C97.7085 95.504 98.5245 96.208 98.5245 97.6C98.5245 98.992 97.5165 100.192 95.0685 100.192ZM102.794 100C101.066 100 100.41 99.344 100.41 97.68V93.392H99.1303V92H100.41V89.904H102.762V92H104.314V93.392H102.762V97.44C102.762 98.08 103.018 98.32 103.642 98.32H104.282V100H102.794ZM105.806 90.928V88.752H108.27V90.928H105.806ZM105.87 100V92H108.222V100H105.87ZM110.417 100V92H112.769V93.136C113.281 92.24 114.081 91.808 115.217 91.808C116.929 91.808 117.793 92.768 117.793 94.768V100H115.441V94.768C115.441 93.808 115.057 93.344 114.273 93.344C113.329 93.344 112.769 93.936 112.769 95.168V100H110.417ZM127.421 95.888C127.421 96.016 127.405 96.16 127.389 96.352H121.949C122.045 98.048 122.733 98.688 123.613 98.688C124.301 98.688 124.813 98.272 125.021 97.264L127.213 97.824C126.669 99.328 125.389 100.192 123.565 100.192C121.117 100.192 119.485 98.56 119.485 96C119.485 93.44 121.133 91.808 123.565 91.808C125.965 91.808 127.421 93.36 127.421 95.888ZM123.565 93.248C122.781 93.248 122.125 93.76 121.965 95.232H124.989C124.909 93.744 124.317 93.248 123.565 93.248ZM134.613 100L131.557 88.96H134.021L135.909 96.8L136.069 97.472H136.133L136.293 96.8L138.613 88.96H140.165L142.437 96.8L142.597 97.472H142.661L142.821 96.8L144.741 88.96H146.933L143.893 100H141.157L139.381 93.568L139.237 92.896H139.173L139.029 93.568L137.333 100H134.613ZM151.487 100.192C149.023 100.192 147.391 98.56 147.391 96C147.391 93.44 149.023 91.808 151.487 91.808C153.951 91.808 155.583 93.44 155.583 96C155.583 98.56 153.951 100.192 151.487 100.192ZM151.487 98.688C152.399 98.688 153.135 97.936 153.135 96C153.135 94.064 152.399 93.312 151.487 93.312C150.575 93.312 149.839 94.064 149.839 96C149.839 97.936 150.575 98.688 151.487 98.688ZM157.37 100V92H159.722V93.248C160.186 92.288 160.762 91.904 161.946 91.904H162.218V93.888H161.21C160.218 93.888 159.722 94.368 159.722 95.52V100H157.37ZM168.631 100L166.807 96.72L165.783 97.904V100H163.463V88.48H165.783V95.376L168.599 92H170.935L168.327 94.992L171.143 100H168.631ZM172.276 100V92H174.628V93.136C175.14 92.24 175.924 91.808 176.98 91.808C178.132 91.808 178.9 92.272 179.236 93.232C179.892 92.176 180.82 91.808 181.812 91.808C183.476 91.808 184.292 92.72 184.292 94.752V100H181.94V94.672C181.94 93.744 181.556 93.344 180.884 93.344C180.004 93.344 179.46 93.904 179.46 95.072V100H177.108V94.672C177.108 93.744 176.724 93.344 176.052 93.344C175.172 93.344 174.628 93.904 174.628 95.072V100H172.276ZM188.401 100.192C186.865 100.192 185.937 99.344 185.937 97.984C185.937 96.56 186.737 96.096 188.545 95.568L189.825 95.216C190.577 94.992 190.849 94.736 190.849 94.144C190.849 93.52 190.545 93.152 189.825 93.152C188.897 93.152 188.465 93.664 188.433 94.8L186.161 94.592C186.353 92.736 187.585 91.808 189.825 91.808C192.225 91.808 193.201 92.752 193.201 94.848V98.192C193.201 98.496 193.313 98.624 193.569 98.624H193.905V100.08H192.769C191.649 100.08 191.057 99.776 190.993 98.672L190.977 98.4C190.529 99.648 189.697 100.192 188.401 100.192ZM189.313 98.72C190.145 98.72 190.849 97.984 190.849 96.784V95.84C190.657 95.968 190.385 96.064 190.065 96.176L189.649 96.304C188.673 96.608 188.305 97.024 188.305 97.68C188.305 98.336 188.689 98.72 189.313 98.72ZM195.448 100V92H197.8V93.136C198.312 92.24 199.112 91.808 200.248 91.808C201.96 91.808 202.824 92.768 202.824 94.768V100H200.472V94.768C200.472 93.808 200.088 93.344 199.304 93.344C198.36 93.344 197.8 93.936 197.8 95.168V100H195.448Z" fill="#1C1D1F"/>
<defs>
<clipPath id="clip0_4809_11273">
<path d="M28 94C28 85.1634 35.1634 78 44 78V78C52.8366 78 60 85.1634 60 94V94C60 102.837 52.8366 110 44 110V110C35.1634 110 28 102.837 28 94V94Z" fill="white"/>
</clipPath>
</defs>
</svg>
