<svg width="256" height="80" viewBox="0 0 256 80" fill="none" xmlns="http://www.w3.org/2000/svg">
<path d="M44 49.9996V45.4541H32.9231V49.9996H44Z" fill="#52B0FF"/>
<path d="M32.0028 41.0701L35.8573 40.343C35.927 42.2981 36.5494 43.2302 37.866 43.2302C38.997 43.2302 39.5282 42.7071 39.5282 41.2064V29.999H43.5446V40.2743C43.5446 44.2986 41.8599 45.9578 37.7737 45.9578C33.6875 45.9578 32.3258 43.5261 32.0028 41.0701Z" fill="#1C1D1F"/>
<path d="M64.24 46.192C61.472 46.192 60.576 44.576 60.368 42.768L62.688 42.304C62.752 43.84 63.264 44.512 64.288 44.512C65.232 44.512 65.68 44.064 65.68 42.768V34.96H68.112V42.256C68.112 45.024 66.944 46.192 64.24 46.192ZM72.9121 46.192C71.2001 46.192 70.3361 45.264 70.3361 43.312V38H72.6881V43.312C72.6881 44.224 73.0721 44.656 73.8561 44.656C74.8161 44.656 75.3601 44.08 75.3601 42.832V38H77.7121V46H75.3601V44.864C74.8481 45.776 74.0801 46.192 72.9121 46.192ZM79.9165 46V38H82.2685V39.248C82.7325 38.288 83.3085 37.904 84.4925 37.904H84.7645V39.888H83.7565C82.7645 39.888 82.2685 40.368 82.2685 41.52V46H79.9165ZM87.9321 46.192C86.3961 46.192 85.4681 45.344 85.4681 43.984C85.4681 42.56 86.2681 42.096 88.0761 41.568L89.3561 41.216C90.1081 40.992 90.3801 40.736 90.3801 40.144C90.3801 39.52 90.0761 39.152 89.3561 39.152C88.4281 39.152 87.9961 39.664 87.9641 40.8L85.6921 40.592C85.8841 38.736 87.1161 37.808 89.3561 37.808C91.7561 37.808 92.7321 38.752 92.7321 40.848V44.192C92.7321 44.496 92.8441 44.624 93.1001 44.624H93.4361V46.08H92.3001C91.1801 46.08 90.5881 45.776 90.5241 44.672L90.5081 44.4C90.0601 45.648 89.2281 46.192 87.9321 46.192ZM88.8441 44.72C89.6761 44.72 90.3801 43.984 90.3801 42.784V41.84C90.1881 41.968 89.9161 42.064 89.5961 42.176L89.1801 42.304C88.2041 42.608 87.8361 43.024 87.8361 43.68C87.8361 44.336 88.2201 44.72 88.8441 44.72ZM98.0373 46.192C96.1173 46.192 95.0293 45.504 94.2933 44.304L96.0373 43.424C96.4213 44.272 97.2053 44.8 98.0373 44.8C98.8373 44.8 99.2373 44.464 99.2373 43.952C99.2373 43.408 98.9173 43.12 97.9413 42.928L96.9333 42.72C95.3973 42.4 94.5813 41.616 94.5813 40.352C94.5813 38.736 95.9093 37.824 97.8453 37.824C99.3973 37.824 100.565 38.336 101.253 39.584L99.5733 40.448C99.1573 39.504 98.5653 39.2 97.8932 39.2C97.1093 39.2 96.7573 39.536 96.7573 40.064C96.7573 40.544 97.1253 40.816 97.9733 40.976L99.0133 41.184C100.677 41.504 101.493 42.208 101.493 43.6C101.493 44.992 100.485 46.192 98.0373 46.192ZM106.194 46.192C104.274 46.192 103.186 45.504 102.45 44.304L104.194 43.424C104.578 44.272 105.362 44.8 106.194 44.8C106.994 44.8 107.394 44.464 107.394 43.952C107.394 43.408 107.074 43.12 106.098 42.928L105.09 42.72C103.554 42.4 102.738 41.616 102.738 40.352C102.738 38.736 104.066 37.824 106.002 37.824C107.554 37.824 108.722 38.336 109.41 39.584L107.73 40.448C107.314 39.504 106.722 39.2 106.049 39.2C105.266 39.2 104.914 39.536 104.914 40.064C104.914 40.544 105.282 40.816 106.13 40.976L107.17 41.184C108.834 41.504 109.65 42.208 109.65 43.6C109.65 44.992 108.642 46.192 106.194 46.192ZM111.134 36.928V34.752H113.598V36.928H111.134ZM111.198 46V38H113.55V46H111.198ZM119.409 46.192C116.961 46.192 115.329 44.56 115.329 42C115.329 39.44 116.961 37.808 119.409 37.808C121.329 37.808 122.593 38.752 123.073 40.512L120.913 41.056C120.737 39.856 120.209 39.312 119.409 39.312C118.513 39.312 117.777 40.064 117.777 42C117.777 43.936 118.513 44.688 119.409 44.688C120.209 44.688 120.737 44.112 120.913 42.928L123.073 43.488C122.593 45.232 121.329 46.192 119.409 46.192ZM127.859 46V34.96H132.787C135.219 34.96 136.643 36.16 136.643 38.336C136.643 40.496 135.219 41.712 132.787 41.712H130.275V46H127.859ZM130.275 40.128H132.195C133.491 40.128 134.227 39.536 134.227 38.336C134.227 37.136 133.491 36.544 132.195 36.544H130.275V40.128ZM139.729 46.192C138.193 46.192 137.265 45.344 137.265 43.984C137.265 42.56 138.065 42.096 139.873 41.568L141.153 41.216C141.905 40.992 142.177 40.736 142.177 40.144C142.177 39.52 141.873 39.152 141.153 39.152C140.225 39.152 139.793 39.664 139.761 40.8L137.489 40.592C137.681 38.736 138.913 37.808 141.153 37.808C143.553 37.808 144.529 38.752 144.529 40.848V44.192C144.529 44.496 144.641 44.624 144.897 44.624H145.233V46.08H144.097C142.977 46.08 142.385 45.776 142.321 44.672L142.305 44.4C141.857 45.648 141.025 46.192 139.729 46.192ZM140.641 44.72C141.473 44.72 142.177 43.984 142.177 42.784V41.84C141.985 41.968 141.713 42.064 141.393 42.176L140.977 42.304C140.001 42.608 139.633 43.024 139.633 43.68C139.633 44.336 140.017 44.72 140.641 44.72ZM146.776 46V38H149.128V39.248C149.592 38.288 150.168 37.904 151.352 37.904H151.624V39.888H150.616C149.624 39.888 149.128 40.368 149.128 41.52V46H146.776ZM158.038 46L156.214 42.72L155.19 43.904V46H152.87V34.48H155.19V41.376L158.006 38H160.342L157.734 40.992L160.55 46H158.038Z" fill="#1C1D1F"/>
<path d="M222.192 43.3073C222.25 43.3654 222.296 43.4343 222.328 43.5102C222.359 43.5861 222.375 43.6674 222.375 43.7495C222.375 43.8316 222.359 43.913 222.328 43.9889C222.296 44.0647 222.25 44.1337 222.192 44.1917L218.442 47.9417C218.384 47.9998 218.315 48.0459 218.239 48.0774C218.163 48.1088 218.082 48.125 218 48.125C217.918 48.125 217.837 48.1088 217.761 48.0774C217.685 48.0459 217.616 47.9998 217.558 47.9417L213.808 44.1917C213.691 44.0744 213.625 43.9154 213.625 43.7495C213.625 43.5837 213.691 43.4246 213.808 43.3073C213.925 43.1901 214.084 43.1242 214.25 43.1242C214.416 43.1242 214.575 43.1901 214.692 43.3073L218 46.6159L221.308 43.3073C221.366 43.2492 221.435 43.2031 221.511 43.1717C221.587 43.1402 221.668 43.124 221.75 43.124C221.832 43.124 221.913 43.1402 221.989 43.1717C222.065 43.2031 222.134 43.2492 222.192 43.3073ZM214.692 36.6917L218 33.3831L221.308 36.6917C221.425 36.809 221.584 36.8749 221.75 36.8749C221.916 36.8749 222.075 36.809 222.192 36.6917C222.309 36.5744 222.375 36.4154 222.375 36.2495C222.375 36.0837 222.309 35.9246 222.192 35.8073L218.442 32.0573C218.384 31.9992 218.315 31.9531 218.239 31.9217C218.163 31.8902 218.082 31.874 218 31.874C217.918 31.874 217.837 31.8902 217.761 31.9217C217.685 31.9531 217.616 31.9992 217.558 32.0573L213.808 35.8073C213.691 35.9246 213.625 36.0837 213.625 36.2495C213.625 36.4154 213.691 36.5744 213.808 36.6917C213.925 36.809 214.084 36.8749 214.25 36.8749C214.416 36.8749 214.575 36.809 214.692 36.6917Z" fill="#848890"/>
</svg>
